<svg xmlns="http://www.w3.org/2000/svg" width="20" height="21" fill="none"><path fill="#0A0A0A" d="M19.845 8.224a1.245 1.245 0 0 0-1.093-.641H6.908a1.846 1.846 0 0 0-1.772 1.329L2.792 16.95a2.037 2.037 0 0 1-1.956 1.466H15.73a2.037 2.037 0 0 0 1.956-1.467l2.25-7.716a1.309 1.309 0 0 0-.093-1.009Z"/><path fill="#FF3C00" d="M1.988 16.716 4.333 8.68a2.688 2.688 0 0 1 2.571-1.93H17.5v-.416a1.667 1.667 0 0 0-1.667-1.667H9.482a.835.835 0 0 1-.649-.308l-.819-1.007A2.08 2.08 0 0 0 6.4 2.583H1.667A1.667 1.667 0 0 0 0 4.25v12.5a.833.833 0 0 0 .833.833 1.206 1.206 0 0 0 1.155-.867Z"/></svg>