<svg xmlns="http://www.w3.org/2000/svg" width="724" height="476" fill="none"><g clip-path="url(#a)"><path fill="#fff" d="m282.404-7.378-10.888 96.96 188.339 21.15 10.888-96.96-188.339-21.15Z"/><path fill="#FF3C00" d="M321.921 14.482c-.076 1.009-.46 1.86-1.149 2.557a8.067 8.067 0 0 1-2.405 1.67 89.21 89.21 0 0 0-2.545 1.363 15.76 15.76 0 0 0-2.437 1.667 8.952 8.952 0 0 0-1.877 2.139c-.501.8-.79 1.725-.869 2.776-.068.92.088 1.769.471 2.545.382.778.864 1.551 1.445 2.321.581.77 1.226 1.568 1.936 2.39a17.48 17.48 0 0 1 1.911 2.72c.564.99 1.021 2.092 1.371 3.307.349 1.215.465 2.61.348 4.188-.082 1.095-.404 2.315-.967 3.66a24.084 24.084 0 0 1-2.184 4.032 28.711 28.711 0 0 1-3.096 3.865 27.495 27.495 0 0 1-3.679 3.26c-1.282.938-2.602 1.677-3.964 2.214-1.361.536-2.655.76-3.881.668-1.358-.102-2.534-.564-3.53-1.387-.996-.824-1.438-1.979-1.326-3.468a5.596 5.596 0 0 1 .93-2.738 14.24 14.24 0 0 1 1.958-2.331 25.807 25.807 0 0 1 2.504-2.125 32.973 32.973 0 0 0 2.499-2.06 13.461 13.461 0 0 0 1.948-2.2c.542-.774.848-1.62.916-2.541.095-1.27-.257-2.606-1.055-4.01a81.034 81.034 0 0 0-2.68-4.361 46.61 46.61 0 0 1-2.663-4.592c-.787-1.556-1.123-3.1-1.008-4.634.14-1.883.791-3.827 1.955-5.832a23.995 23.995 0 0 1 4.302-5.427 22.27 22.27 0 0 1 5.643-3.905c2.056-.991 4.047-1.415 5.974-1.272 1.533.115 2.812.673 3.84 1.674 1.026 1.002 1.481 2.291 1.364 3.867Zm11.198 49.128c-2.234-.167-4.139-.904-5.714-2.21-1.577-1.308-2.866-2.923-3.866-4.848-1.002-1.925-1.703-4.035-2.104-6.334-.401-2.297-.52-4.541-.356-6.732.174-2.32.637-4.697 1.391-7.13.754-2.43 1.799-4.622 3.133-6.57 1.335-1.948 2.97-3.499 4.906-4.654 1.936-1.154 4.174-1.637 6.714-1.447 2.452.182 4.494 1.007 6.125 2.472 1.629 1.465 2.896 3.233 3.798 5.304.903 2.072 1.484 4.306 1.746 6.703.26 2.398.248 4.643-.041 6.736a37.843 37.843 0 0 1-1.609 6.948c-.768 2.321-1.791 4.381-3.07 6.18-1.28 1.798-2.84 3.222-4.68 4.274-1.84 1.052-3.965 1.487-6.373 1.307Zm2.874-29.646c-.657-.05-1.264.259-1.82.92-.556.664-1.035 1.488-1.439 2.47a20.644 20.644 0 0 0-.994 3.13c-.259 1.103-.419 2.072-.481 2.903a21.564 21.564 0 0 0 .041 3.438 20.64 20.64 0 0 0 .568 3.445c.274 1.055.637 1.941 1.09 2.657.452.718 1.009 1.1 1.665 1.149.7.052 1.327-.232 1.88-.851.552-.62 1.02-1.42 1.403-2.405.38-.985.683-2.074.905-3.27a31.33 31.33 0 0 0 .449-3.368c.072-.962.063-2.032-.025-3.206a20.372 20.372 0 0 0-.512-3.308c-.254-1.031-.608-1.895-1.062-2.59-.455-.693-1.011-1.065-1.668-1.114ZM375.5 40.15c-.618-.002-1.139-.096-1.565-.282a30.705 30.705 0 0 1-1.277-.591 29.325 29.325 0 0 0-1.145-.58 2.894 2.894 0 0 0-1.302-.264c-.88-.021-1.675.163-2.386.55a8.164 8.164 0 0 0-1.963 1.504 10.883 10.883 0 0 0-1.576 2.095 14.179 14.179 0 0 0-1.099 2.33c-.171.515-.329 1.308-.474 2.375a57.081 57.081 0 0 0-.357 3.442c-.138 1.267-.25 2.47-.335 3.608-.086 1.14-.196 2.033-.333 2.684-.096.697-.268 1.51-.512 2.439a11.917 11.917 0 0 1-1.02 2.6 6.41 6.41 0 0 1-1.635 1.991c-.657.523-1.466.75-2.429.678-.745-.056-1.374-.323-1.889-.802-.516-.479-.932-1.093-1.25-1.844-.319-.75-.563-1.616-.731-2.598-.169-.98-.282-1.98-.338-2.998a51.038 51.038 0 0 1-.06-3.176 76.06 76.06 0 0 1 .092-2.999c.047-.942.112-1.808.193-2.595.081-.787.139-1.42.176-1.903.07-1.536.108-3.085.116-4.648.006-1.563.066-3.11.181-4.645.072-.962.195-2.033.372-3.209a11.66 11.66 0 0 1 .97-3.263c.472-1 1.116-1.822 1.935-2.465.819-.643 1.907-.915 3.265-.813.744.055 1.362.344 1.851.865a5.626 5.626 0 0 1 1.149 1.869c.276.726.472 1.488.589 2.29.115.801.171 1.532.166 2.193 1.179-1.63 2.465-2.932 3.859-3.907 1.394-.974 3.146-1.427 5.254-1.359 1.055.036 2.087.212 3.099.529a9.033 9.033 0 0 1 2.736 1.394 6.794 6.794 0 0 1 1.943 2.291c.482.918.701 1.968.657 3.154-.018 1.409-.513 2.45-1.489 3.126-.975.678-2.121.99-3.438.934Zm28.375 2.12c-.618-.002-1.139-.095-1.565-.282a30.068 30.068 0 0 1-1.277-.59 28.54 28.54 0 0 0-1.146-.582 2.883 2.883 0 0 0-1.302-.262c-.88-.021-1.675.161-2.386.548a8.142 8.142 0 0 0-1.962 1.505 10.876 10.876 0 0 0-1.577 2.095 14.197 14.197 0 0 0-1.099 2.33c-.17.515-.328 1.308-.474 2.376a57.07 57.07 0 0 0-.356 3.441c-.138 1.268-.25 2.47-.335 3.609-.085 1.14-.196 2.033-.333 2.684-.096.697-.268 1.51-.512 2.439a11.817 11.817 0 0 1-1.02 2.6 6.413 6.413 0 0 1-1.635 1.991c-.657.523-1.467.75-2.429.678-.745-.056-1.374-.324-1.889-.802-.515-.48-.932-1.093-1.25-1.844-.318-.75-.563-1.616-.731-2.599-.169-.98-.282-1.98-.338-2.998a51.037 51.037 0 0 1-.06-3.175 76.09 76.09 0 0 1 .092-3c.047-.942.112-1.808.193-2.594.081-.787.139-1.42.176-1.903.07-1.536.108-3.085.116-4.649.006-1.562.066-3.11.181-4.643.073-.963.195-2.034.372-3.21.176-1.176.499-2.263.97-3.263s1.116-1.821 1.935-2.465c.819-.643 1.907-.914 3.265-.813.745.056 1.362.344 1.851.865a5.632 5.632 0 0 1 1.149 1.869c.276.726.472 1.488.589 2.29.115.802.171 1.532.166 2.193 1.179-1.63 2.465-2.932 3.859-3.908 1.395-.974 3.146-1.426 5.255-1.358 1.054.035 2.087.212 3.098.529a9.026 9.026 0 0 1 2.737 1.393 6.79 6.79 0 0 1 1.943 2.292c.482.918.701 1.968.656 3.154-.017 1.409-.513 2.45-1.488 3.126-.976.677-2.122.988-3.439.933Zm16.582 45.17c-1.051-.079-2.233-.331-3.543-.76a17.015 17.015 0 0 1-3.672-1.694c-1.137-.703-2.078-1.521-2.823-2.457-.745-.938-1.074-1.974-.989-3.113.033-.438.174-.868.426-1.29.252-.421.576-.782.973-1.083.396-.3.821-.533 1.275-.698a3.316 3.316 0 0 1 1.401-.192c.526.04 1.034.154 1.527.346.492.19.993.415 1.502.673.553.261 1.096.5 1.632.716a5.72 5.72 0 0 0 1.721.393 4.102 4.102 0 0 0 2.941-.903c.866-.685 1.629-1.607 2.288-2.77.659-1.162 1.219-2.463 1.679-3.904.46-1.442.842-2.876 1.147-4.307a62.72 62.72 0 0 0 .732-4.042c.182-1.262.324-2.287.427-3.072-1.707 2.207-3.361 3.877-4.965 5.013-1.605 1.135-3.502 1.621-5.691 1.458-1.665-.125-3.094-.583-4.291-1.378a10.42 10.42 0 0 1-2.98-2.997c-.792-1.204-1.417-2.56-1.876-4.071a24.79 24.79 0 0 1-.94-4.661 38.385 38.385 0 0 1-.212-4.674c.024-1.517.128-2.907.311-4.171.115-.96.33-2.21.643-3.75s.744-3.039 1.294-4.495c.548-1.456 1.256-2.67 2.121-3.64.865-.97 1.929-1.365 3.194-1.182.827.106 1.48.518 1.955 1.236.475.719.839 1.593 1.093 2.625.253 1.033.41 2.156.474 3.371.063 1.217.073 2.417.028 3.603a55.372 55.372 0 0 1-.21 3.255 103.59 103.59 0 0 0-.201 2.263 36.373 36.373 0 0 0-.101 2.239c-.013.748.091 1.427.31 2.038a3.18 3.18 0 0 0 1.11 1.504c.521.391 1.285.624 2.293.699 1.139.085 2.068-.131 2.79-.65a5.159 5.159 0 0 0 1.67-2.023c.393-.83.669-1.734.83-2.712.161-.98.275-1.906.34-2.782l.167-2.234c.066-.876.144-1.795.239-2.757a20.45 20.45 0 0 1 .476-2.838c.224-.93.528-1.766.913-2.509.386-.741.87-1.333 1.454-1.774.583-.44 1.313-.629 2.19-.563 1.093.082 2.004.579 2.729 1.492.724.913 1.308 2.08 1.753 3.5.444 1.42.769 2.975.974 4.664a57.06 57.06 0 0 1 .384 5.017c.052 1.655.061 3.175.023 4.56a72.133 72.133 0 0 1-.144 3.26 113.452 113.452 0 0 1-.665 6.258 78.654 78.654 0 0 1-1.295 7.17 49.26 49.26 0 0 1-2.22 7.167c-.923 2.332-2.057 4.394-3.402 6.188-1.345 1.793-2.936 3.193-4.772 4.202-1.84 1.006-3.985 1.419-6.437 1.236Z"/><path fill="#FF3C00" d="M467.189 94.706c1.852-5.226 2.007-14.561-8.599-18.1-10.606-3.537-19.323 10.457-8.691 18.977 4.521 3.624 11.592 1 11.592 1 7.283 36.144 2.678 152.007-5.147 166.611-4.311 8.045-7.34 10.603-9.377 10.963v-73.558c0-44.718-23.713-80.628-78.254-80.628-54.542 0-78.256 35.91-78.256 80.628v61.843l-.006-.012s-3.214 9.686-12.916-8.422c-7.826-14.603-12.432-130.466-5.148-166.61 0 0 7.072 2.623 11.593-1 10.631-8.522 1.915-22.515-8.691-18.977-10.606 3.538-10.451 12.873-8.6 18.1.455 1.284-19.315 133.747 7.649 182.441 8.039 14.517 13.038 20.261 16.119 21.335v4.462c0 35.444 20.431 64.658 58.088 72.26l-5.473 57.483s-9.67-3.701-15.247 1.951c-5.578 5.653 8.727 10.974 18.389 8.63 9.662-2.343 4.839-7.431 4.929-8.72.074-1.045-1.068-37.422.194-58.827 5.451.925 11.245 1.412 17.375 1.412 9.33 0 17.883-1.124 25.63-3.215 2.313 20.724 2.468 60.699 2.584 61.792.136 1.284-4.505 6.539 5.235 8.54 9.738 2 23.846-3.824 18.072-9.276-5.774-5.451-15.307-1.411-15.307-1.411l-7.917-60.414c31.732-9.715 49.167-36.185 49.929-68.016 3.015-3.031 7.095-8.858 12.601-18.801 26.965-48.693 7.195-181.156 7.65-182.44Zm-67.31 199.053c0 19.31-10.84 32.521-31.166 32.521s-31.167-13.21-31.167-32.521v-95.532c0-21.681 8.808-36.925 31.167-36.925 22.358 0 31.166 15.244 31.166 36.925v95.532Z"/><path fill="#fff" d="M313.758 275.925c7.611 0 13.781-11.183 13.781-24.978 0-13.795-6.17-24.978-13.781-24.978-7.611 0-13.781 11.183-13.781 24.978 0 13.795 6.17 24.978 13.781 24.978Zm109.822 0c8.087 0 14.643-11.183 14.643-24.978 0-13.795-6.556-24.978-14.643-24.978s-14.642 11.183-14.642 24.978c0 13.795 6.555 24.978 14.642 24.978Z"/><path fill="#000" d="M321.941 256.115a7.752 7.752 0 1 1-15.505 0 7.752 7.752 0 0 1 15.505 0Zm108.953-2.586a7.752 7.752 0 1 1-15.505 0 7.752 7.752 0 0 1 15.505 0Z"/><path fill="#FF422E" d="M466.227 431.689c0 11.099-42.415 20.095-94.735 20.095-52.321 0-94.734-8.997-94.734-20.095 0-11.098 42.413-20.095 94.734-20.095s94.735 8.997 94.735 20.095Z" opacity=".3"/><path fill="#FF3C00" d="M188.517 367.539c0 14.116-11.763 24.703-27.056 24.703-15.291 0-27.054-10.587-27.054-24.703v-32.151H48.145c-16.469 0-27.84-12.548-27.84-26.663 0-1.568 1.568-8.627 3.92-13.723L99.51 121.299c3.921-9.41 14.116-15.291 24.311-15.291 13.331 0 27.056 11.763 27.056 25.488 0 2.351 0 5.096-1.569 8.625-22.742 52.543-41.172 93.713-63.914 146.255h49.014v-59.994c0-14.116 11.763-24.702 27.054-24.702 14.509 0 27.056 10.586 27.056 24.702v59.992h5.097c14.9 0 26.272 11.372 26.272 24.31 0 13.725-11.372 24.704-26.272 24.704h-5.097v32.151Zm486.328 2.582c0 14.116-11.763 24.704-27.056 24.704-15.291 0-27.053-10.588-27.053-24.704v-32.15h-86.263c-16.469 0-27.84-12.548-27.84-26.663 0-1.568 1.568-8.628 3.921-13.724l75.283-173.703c3.92-9.411 14.116-15.291 24.31-15.291 13.332 0 27.056 11.763 27.056 25.488 0 2.35 0 5.097-1.569 8.624-22.742 52.543-41.171 93.713-63.913 146.256h49.014v-59.993c0-14.116 11.763-24.702 27.053-24.702 14.509 0 27.056 10.586 27.056 24.702v59.993h5.097c14.9 0 26.272 11.371 26.272 24.309 0 13.725-11.372 24.704-26.272 24.704h-5.097v32.15h.001Z"/></g><defs><clipPath id="a"><path fill="#fff" d="M0 0h724v475.45H0z"/></clipPath></defs></svg>