<svg xmlns="http://www.w3.org/2000/svg" width="386" height="281" fill="none"><path fill="#fff" d="M0 0h386v281H0z"/><path fill="url(#a)" d="M73.595 214.806a2.558 2.558 0 0 1-3.088-1.886 2.558 2.558 0 0 1 1.884-3.089l35.213-8.524a2.56 2.56 0 0 1 1.205 4.975l-35.214 8.524Z"/><path fill="url(#b)" d="M71.453 205.136a2.559 2.559 0 0 1-.8-5.055l35.785-5.662a2.56 2.56 0 0 1 .8 5.056l-35.785 5.661Z"/><path fill="url(#c)" d="M70.094 195.326a2.56 2.56 0 0 1-.391-5.104l36.126-2.761a2.559 2.559 0 0 1 .391 5.104l-36.126 2.761Z"/><path fill="url(#d)" d="M69.53 185.438a2.56 2.56 0 0 1 .02-5.119l36.231.157a2.56 2.56 0 0 1-.02 5.119l-36.232-.157Z"/><path fill="url(#e)" d="M69.761 175.537a2.56 2.56 0 0 1 .432-5.101l36.103 3.074a2.56 2.56 0 0 1-.432 5.101l-36.103-3.074Z"/><path fill="url(#f)" d="M70.788 165.686a2.56 2.56 0 0 1-2.102-2.946 2.557 2.557 0 0 1 2.943-2.103l35.739 5.971a2.56 2.56 0 0 1-.84 5.049l-35.74-5.971Z"/><path fill="url(#g)" d="M72.605 155.951a2.56 2.56 0 0 1 1.243-4.964l35.145 8.829a2.561 2.561 0 0 1 1.859 3.106 2.558 2.558 0 0 1-3.103 1.859l-35.144-8.83Z"/><path fill="url(#h)" d="M75.198 146.394a2.561 2.561 0 0 1-1.604-3.245 2.557 2.557 0 0 1 3.243-1.604l34.321 11.631a2.56 2.56 0 0 1-1.639 4.848l-34.322-11.63Z"/><path fill="url(#i)" d="M78.55 137.077a2.561 2.561 0 0 1-1.336-3.364 2.557 2.557 0 0 1 3.36-1.337l33.276 14.357a2.56 2.56 0 0 1 1.338 3.363 2.556 2.556 0 0 1-3.361 1.337l-33.276-14.356Z"/><path fill="url(#j)" d="M82.642 128.061a2.562 2.562 0 0 1-1.062-3.461 2.556 2.556 0 0 1 3.457-1.061l32.015 16.988a2.561 2.561 0 0 1 1.063 3.46 2.556 2.556 0 0 1-3.458 1.062l-32.015-16.988Z"/><path fill="url(#k)" d="M87.446 119.403a2.562 2.562 0 0 1-.781-3.535 2.557 2.557 0 0 1 3.532-.78l30.546 19.511a2.562 2.562 0 0 1 .78 3.535 2.556 2.556 0 0 1-3.531.78l-30.546-19.511Z"/><path fill="url(#l)" d="M92.93 111.16a2.56 2.56 0 0 1-.494-3.585 2.556 2.556 0 0 1 3.583-.494l28.879 21.907a2.561 2.561 0 0 1 .494 3.586 2.556 2.556 0 0 1-3.583.493l-28.88-21.907Z"/><path fill="url(#m)" d="M99.06 103.386a2.56 2.56 0 0 1-.205-3.614 2.556 2.556 0 0 1 3.611-.202l27.025 24.16a2.561 2.561 0 0 1 .204 3.614 2.556 2.556 0 0 1-3.611.203l-27.025-24.161Z"/><path fill="url(#n)" d="M105.794 96.132a2.561 2.561 0 0 1 .087-3.619 2.556 2.556 0 0 1 3.616.089l24.995 26.257a2.557 2.557 0 1 1-3.703 3.53l-24.995-26.257Z"/><path fill="url(#o)" d="M113.09 89.443a2.56 2.56 0 0 1 .378-3.6 2.556 2.556 0 0 1 3.597.38l22.804 28.184a2.56 2.56 0 0 1-.378 3.599 2.555 2.555 0 0 1-3.597-.379L113.09 89.443Z"/><path fill="url(#p)" d="M120.901 83.363a2.557 2.557 0 1 1 4.221-2.89l20.464 29.929a2.556 2.556 0 1 1-4.221 2.889l-20.464-29.928Z"/><path fill="url(#q)" d="M129.176 77.933a2.557 2.557 0 1 1 4.44-2.54l17.991 31.478a2.558 2.558 0 1 1-4.44 2.54l-17.991-31.478Z"/><path fill="url(#r)" d="M137.861 73.186a2.557 2.557 0 1 1 4.629-2.174l15.403 32.824a2.557 2.557 0 1 1-4.63 2.174l-15.402-32.824Z"/><path fill="url(#s)" d="M146.899 69.154a2.559 2.559 0 1 1 4.79-1.794l12.713 33.957a2.559 2.559 0 1 1-4.79 1.794l-12.713-33.957Z"/><path fill="url(#t)" d="M156.232 65.863a2.558 2.558 0 1 1 4.919-1.403l9.942 34.87a2.559 2.559 0 0 1-1.757 3.163 2.559 2.559 0 0 1-3.161-1.76l-9.943-34.87Z"/><path fill="url(#u)" d="M165.801 63.335a2.558 2.558 0 1 1 5.016-1.002l7.106 35.556a2.558 2.558 0 1 1-5.016 1.002l-7.106-35.556Z"/><path fill="url(#v)" d="M175.541 61.586a2.558 2.558 0 1 1 5.081-.595l4.224 36.011a2.558 2.558 0 1 1-5.08.596l-4.225-36.012Z"/><path fill="url(#w)" d="M185.392 60.626a2.557 2.557 0 1 1 5.111-.183l1.316 36.234a2.558 2.558 0 1 1-5.112.184l-1.315-36.235Z"/><path fill="url(#x)" d="M195.287 60.463a2.557 2.557 0 1 1 5.11.228l-1.602 36.222a2.557 2.557 0 1 1-5.11-.229l1.602-36.221Z"/><path fill="url(#y)" d="M205.164 61.097a2.557 2.557 0 1 1 5.076.639l-4.51 35.974a2.557 2.557 0 1 1-5.076-.64l4.51-35.973Z"/><path fill="url(#z)" d="M214.958 62.524a2.557 2.557 0 1 1 5.008 1.046l-7.388 35.493a2.557 2.557 0 1 1-5.008-1.046l7.388-35.493Z"/><path fill="url(#A)" d="M224.606 64.736a2.557 2.557 0 0 1 3.175-1.733 2.56 2.56 0 0 1 1.733 3.178l-10.218 34.782a2.558 2.558 0 1 1-4.908-1.445l10.218-34.782Z"/><path fill="url(#B)" d="M234.046 67.717a2.556 2.556 0 0 1 3.304-1.471 2.561 2.561 0 0 1 1.471 3.307l-12.982 33.845a2.556 2.556 0 0 1-3.304 1.471 2.56 2.56 0 0 1-1.472-3.307l12.983-33.845Z"/><path fill="url(#C)" d="M243.215 71.448a2.556 2.556 0 0 1 3.412-1.2 2.56 2.56 0 0 1 1.2 3.415l-15.662 32.689a2.556 2.556 0 0 1-3.412 1.2 2.56 2.56 0 0 1-1.2-3.414l15.662-32.69Z"/><path fill="url(#D)" d="M252.054 75.906a2.557 2.557 0 0 1 3.498-.922 2.561 2.561 0 0 1 .922 3.5l-18.24 31.321a2.557 2.557 0 0 1-3.498.922 2.561 2.561 0 0 1-.922-3.5l18.24-31.321Z"/><path fill="url(#E)" d="M260.507 81.06a2.556 2.556 0 0 1 3.56-.637 2.56 2.56 0 0 1 .638 3.563l-20.7 29.75a2.556 2.556 0 0 1-3.56.637 2.56 2.56 0 0 1-.638-3.563l20.7-29.75Z"/><path fill="url(#F)" d="M268.518 86.879a2.556 2.556 0 0 1 3.6-.348 2.561 2.561 0 0 1 .35 3.602l-23.026 27.986a2.556 2.556 0 0 1-3.6.348 2.56 2.56 0 0 1-.35-3.602l23.026-27.986Z"/><path fill="url(#G)" d="M276.036 93.323a2.556 2.556 0 0 1 3.616-.057 2.56 2.56 0 0 1 .059 3.619l-25.203 26.04a2.555 2.555 0 0 1-3.616.057 2.56 2.56 0 0 1-.058-3.619l25.202-26.04Z"/><path fill="url(#H)" d="M283.011 100.352a2.56 2.56 0 0 1 3.377 3.846l-27.216 23.926a2.557 2.557 0 0 1-3.609-.235 2.561 2.561 0 0 1 .233-3.612l27.215-23.925Z"/><path fill="url(#I)" d="M289.399 107.919a2.558 2.558 0 0 1 3.579.524 2.56 2.56 0 0 1-.523 3.582l-29.051 21.656a2.56 2.56 0 0 1-3.057-4.106l29.052-21.656Z"/><path fill="url(#J)" d="M295.157 115.976a2.56 2.56 0 0 1 2.717 4.339l-30.7 19.245a2.557 2.557 0 0 1-3.525-.81 2.56 2.56 0 0 1 .809-3.528l30.699-19.246Z"/><path fill="url(#K)" d="M300.249 124.471a2.556 2.556 0 0 1 3.449 1.092 2.558 2.558 0 0 1-1.09 3.45l-32.148 16.711a2.56 2.56 0 0 1-2.359-4.543l32.148-16.71Z"/><path fill="url(#L)" d="M304.642 133.347a2.558 2.558 0 0 1 3.35 1.366 2.559 2.559 0 0 1-1.364 3.352l-33.388 14.067a2.557 2.557 0 0 1-3.35-1.366 2.558 2.558 0 0 1 1.363-3.351l33.389-14.068Z"/><path fill="url(#M)" d="M308.307 142.549a2.557 2.557 0 0 1 3.229 1.631 2.559 2.559 0 0 1-1.628 3.231l-34.413 11.333a2.56 2.56 0 0 1-1.601-4.863l34.413-11.332Z"/><path fill="url(#N)" d="M311.22 152.015a2.558 2.558 0 0 1 3.088 1.886 2.557 2.557 0 0 1-1.883 3.089l-35.214 8.525a2.56 2.56 0 0 1-1.204-4.976l35.213-8.524Z"/><path fill="url(#O)" d="M313.363 161.685a2.558 2.558 0 0 1 2.926 2.128 2.558 2.558 0 0 1-2.126 2.928l-35.785 5.661a2.558 2.558 0 0 1-2.926-2.128 2.558 2.558 0 0 1 2.125-2.928l35.786-5.661Z"/><path fill="url(#P)" d="M314.721 171.496a2.558 2.558 0 0 1 2.746 2.357 2.557 2.557 0 0 1-2.354 2.746l-36.126 2.762a2.56 2.56 0 0 1-.392-5.104l36.126-2.761Z"/><path fill="url(#Q)" d="M315.286 181.384a2.56 2.56 0 0 1-.02 5.118l-36.232-.157a2.56 2.56 0 0 1 .021-5.118l36.231.157Z"/><path fill="url(#R)" d="M315.054 191.285a2.56 2.56 0 0 1-.431 5.1l-36.103-3.074a2.56 2.56 0 0 1 .432-5.1l36.102 3.074Z"/><path fill="url(#S)" d="M314.027 201.135a2.56 2.56 0 0 1-.84 5.049l-35.74-5.971a2.56 2.56 0 0 1 .841-5.049l35.739 5.971Z"/><path fill="url(#T)" d="M312.211 210.87a2.561 2.561 0 0 1 1.859 3.106 2.557 2.557 0 0 1-3.103 1.859l-35.144-8.83a2.56 2.56 0 0 1 1.243-4.964l35.145 8.829Z"/><path fill="#0A0A0A" d="m163.076 179 11.531-22.799v-.017h-13.341v-3.375h17.279v3.48L167.119 179h-4.043Zm16.789 0v-3.094l9.422-8.402a42.482 42.482 0 0 0 2.496-2.426c.668-.726 1.166-1.441 1.494-2.144.34-.704.51-1.495.51-2.373 0-1.489-.445-2.666-1.336-3.534-.89-.879-2.103-1.318-3.639-1.318-1.664 0-2.958.516-3.884 1.547-.926 1.031-1.389 2.432-1.389 4.201H179.9c0-1.793.364-3.369 1.09-4.728a8.008 8.008 0 0 1 3.094-3.182c1.336-.774 2.906-1.16 4.711-1.16 1.687 0 3.182.34 4.482 1.019 1.301.668 2.321 1.606 3.059 2.813.75 1.195 1.125 2.584 1.125 4.166 0 1.746-.481 3.322-1.441 4.728-.961 1.395-2.385 2.936-4.272 4.623l-6.574 5.907v.035h12.428V179h-17.737Zm41.785.422c-1.136 0-2.127-.264-2.97-.791-.844-.527-1.506-1.254-1.987-2.18-.468-.926-.703-1.98-.703-3.164v-.527c0-1.184.235-2.239.703-3.164.481-.926 1.143-1.653 1.987-2.18.843-.527 1.834-.791 2.97-.791 1.125 0 2.11.264 2.954.791a5.37 5.37 0 0 1 1.968 2.18c.481.925.721 1.98.721 3.164v.527c0 1.184-.24 2.238-.721 3.164a5.37 5.37 0 0 1-1.968 2.18c-.844.527-1.829.791-2.954.791Zm-15.627-14.238c-1.125 0-2.115-.264-2.97-.791a5.379 5.379 0 0 1-1.969-2.18c-.469-.926-.703-1.981-.703-3.164v-.528c0-1.183.234-2.238.703-3.164.469-.925 1.125-1.652 1.969-2.179.855-.528 1.845-.791 2.97-.791 1.137 0 2.127.263 2.971.791.844.527 1.5 1.254 1.969 2.179.469.926.703 1.981.703 3.164v.528c0 1.183-.234 2.238-.703 3.164a5.379 5.379 0 0 1-1.969 2.18c-.844.527-1.834.791-2.971.791Zm-2.9 13.816 18-26.191h3.322l-18 26.191h-3.322Zm18.527-2.18c.797 0 1.43-.304 1.899-.914.469-.621.703-1.494.703-2.619v-.527c0-1.125-.234-1.998-.703-2.619-.469-.621-1.102-.932-1.899-.932-.808 0-1.453.311-1.933.932-.469.621-.703 1.494-.703 2.619v.527c0 1.125.234 1.998.703 2.619.48.61 1.125.914 1.933.914Zm-15.627-14.22c.809 0 1.448-.311 1.916-.932.469-.621.704-1.494.704-2.619v-.528c0-1.125-.235-1.998-.704-2.619-.468-.621-1.107-.931-1.916-.931-.796 0-1.435.31-1.916.931-.468.621-.703 1.494-.703 2.619v.528c0 1.125.235 1.998.703 2.619.481.621 1.12.932 1.916.932Z"/><defs><linearGradient id="a" x1="162.898" x2="216.217" y1="61.51" y2="260.5" gradientUnits="userSpaceOnUse"><stop stop-color="#FF3C00"/><stop offset="1" stop-color="#fff"/></linearGradient><linearGradient id="b" x1="162.898" x2="216.217" y1="61.51" y2="260.5" gradientUnits="userSpaceOnUse"><stop stop-color="#FF3C00"/><stop offset="1" stop-color="#fff"/></linearGradient><linearGradient id="c" x1="162.898" x2="216.217" y1="61.51" y2="260.5" gradientUnits="userSpaceOnUse"><stop stop-color="#FF3C00"/><stop offset="1" stop-color="#fff"/></linearGradient><linearGradient id="d" x1="162.898" x2="216.217" y1="61.51" y2="260.5" gradientUnits="userSpaceOnUse"><stop stop-color="#FF3C00"/><stop offset="1" stop-color="#fff"/></linearGradient><linearGradient id="e" x1="162.898" x2="216.217" y1="61.51" y2="260.5" gradientUnits="userSpaceOnUse"><stop stop-color="#FF3C00"/><stop offset="1" stop-color="#fff"/></linearGradient><linearGradient id="f" x1="162.898" x2="216.217" y1="61.51" y2="260.5" gradientUnits="userSpaceOnUse"><stop stop-color="#FF3C00"/><stop offset="1" stop-color="#fff"/></linearGradient><linearGradient id="g" x1="162.898" x2="216.217" y1="61.51" y2="260.5" gradientUnits="userSpaceOnUse"><stop stop-color="#FF3C00"/><stop offset="1" stop-color="#fff"/></linearGradient><linearGradient id="h" x1="162.898" x2="216.217" y1="61.51" y2="260.5" gradientUnits="userSpaceOnUse"><stop stop-color="#FF3C00"/><stop offset="1" stop-color="#fff"/></linearGradient><linearGradient id="i" x1="162.898" x2="216.217" y1="61.51" y2="260.5" gradientUnits="userSpaceOnUse"><stop stop-color="#FF3C00"/><stop offset="1" stop-color="#fff"/></linearGradient><linearGradient id="j" x1="162.898" x2="216.217" y1="61.51" y2="260.5" gradientUnits="userSpaceOnUse"><stop stop-color="#FF3C00"/><stop offset="1" stop-color="#fff"/></linearGradient><linearGradient id="k" x1="162.898" x2="216.217" y1="61.51" y2="260.5" gradientUnits="userSpaceOnUse"><stop stop-color="#FF3C00"/><stop offset="1" stop-color="#fff"/></linearGradient><linearGradient id="l" x1="162.898" x2="216.217" y1="61.51" y2="260.5" gradientUnits="userSpaceOnUse"><stop stop-color="#FF3C00"/><stop offset="1" stop-color="#fff"/></linearGradient><linearGradient id="m" x1="162.898" x2="216.217" y1="61.51" y2="260.5" gradientUnits="userSpaceOnUse"><stop stop-color="#FF3C00"/><stop offset="1" stop-color="#fff"/></linearGradient><linearGradient id="n" x1="162.898" x2="216.217" y1="61.51" y2="260.5" gradientUnits="userSpaceOnUse"><stop stop-color="#FF3C00"/><stop offset="1" stop-color="#fff"/></linearGradient><linearGradient id="o" x1="162.898" x2="216.217" y1="61.51" y2="260.5" gradientUnits="userSpaceOnUse"><stop stop-color="#FF3C00"/><stop offset="1" stop-color="#fff"/></linearGradient><linearGradient id="p" x1="162.898" x2="216.217" y1="61.51" y2="260.5" gradientUnits="userSpaceOnUse"><stop stop-color="#FF3C00"/><stop offset="1" stop-color="#fff"/></linearGradient><linearGradient id="q" x1="162.898" x2="216.217" y1="61.51" y2="260.5" gradientUnits="userSpaceOnUse"><stop stop-color="#FF3C00"/><stop offset="1" stop-color="#fff"/></linearGradient><linearGradient id="r" x1="162.898" x2="216.217" y1="61.51" y2="260.5" gradientUnits="userSpaceOnUse"><stop stop-color="#FF3C00"/><stop offset="1" stop-color="#fff"/></linearGradient><linearGradient id="s" x1="162.898" x2="216.217" y1="61.51" y2="260.5" gradientUnits="userSpaceOnUse"><stop stop-color="#FF3C00"/><stop offset="1" stop-color="#fff"/></linearGradient><linearGradient id="t" x1="162.898" x2="216.217" y1="61.51" y2="260.5" gradientUnits="userSpaceOnUse"><stop stop-color="#FF3C00"/><stop offset="1" stop-color="#fff"/></linearGradient><linearGradient id="u" x1="162.898" x2="216.217" y1="61.51" y2="260.5" gradientUnits="userSpaceOnUse"><stop stop-color="#FF3C00"/><stop offset="1" stop-color="#fff"/></linearGradient><linearGradient id="v" x1="162.898" x2="216.217" y1="61.51" y2="260.5" gradientUnits="userSpaceOnUse"><stop stop-color="#FF3C00"/><stop offset="1" stop-color="#fff"/></linearGradient><linearGradient id="w" x1="162.898" x2="216.217" y1="61.51" y2="260.5" gradientUnits="userSpaceOnUse"><stop stop-color="#FF3C00"/><stop offset="1" stop-color="#fff"/></linearGradient><linearGradient id="x" x1="162.898" x2="216.217" y1="61.51" y2="260.5" gradientUnits="userSpaceOnUse"><stop stop-color="#FF3C00"/><stop offset="1" stop-color="#fff"/></linearGradient><linearGradient id="y" x1="162.898" x2="216.217" y1="61.51" y2="260.5" gradientUnits="userSpaceOnUse"><stop stop-color="#FF3C00"/><stop offset="1" stop-color="#fff"/></linearGradient><linearGradient id="z" x1="162.898" x2="216.217" y1="61.51" y2="260.5" gradientUnits="userSpaceOnUse"><stop stop-color="#FF3C00"/><stop offset="1" stop-color="#fff"/></linearGradient><linearGradient id="A" x1="162.898" x2="216.217" y1="61.51" y2="260.5" gradientUnits="userSpaceOnUse"><stop stop-color="#FF3C00"/><stop offset="1" stop-color="#fff"/></linearGradient><linearGradient id="B" x1="162.898" x2="216.217" y1="61.51" y2="260.5" gradientUnits="userSpaceOnUse"><stop stop-color="#FF3C00"/><stop offset="1" stop-color="#fff"/></linearGradient><linearGradient id="C" x1="162.898" x2="216.217" y1="61.51" y2="260.5" gradientUnits="userSpaceOnUse"><stop stop-color="#FF3C00"/><stop offset="1" stop-color="#fff"/></linearGradient><linearGradient id="D" x1="162.898" x2="216.217" y1="61.51" y2="260.5" gradientUnits="userSpaceOnUse"><stop stop-color="#FF3C00"/><stop offset="1" stop-color="#fff"/></linearGradient><linearGradient id="E" x1="162.898" x2="216.217" y1="61.51" y2="260.5" gradientUnits="userSpaceOnUse"><stop stop-color="#FF3C00"/><stop offset="1" stop-color="#fff"/></linearGradient><linearGradient id="F" x1="162.898" x2="216.217" y1="61.51" y2="260.5" gradientUnits="userSpaceOnUse"><stop stop-color="#FF3C00"/><stop offset="1" stop-color="#fff"/></linearGradient><linearGradient id="G" x1="162.898" x2="216.217" y1="61.51" y2="260.5" gradientUnits="userSpaceOnUse"><stop stop-color="#FF3C00"/><stop offset="1" stop-color="#fff"/></linearGradient><linearGradient id="H" x1="162.898" x2="216.217" y1="61.51" y2="260.5" gradientUnits="userSpaceOnUse"><stop stop-color="#FF3C00"/><stop offset="1" stop-color="#fff"/></linearGradient><linearGradient id="I" x1="162.898" x2="216.217" y1="61.51" y2="260.5" gradientUnits="userSpaceOnUse"><stop stop-color="#FF3C00"/><stop offset="1" stop-color="#fff"/></linearGradient><linearGradient id="J" x1="162.898" x2="216.217" y1="61.51" y2="260.5" gradientUnits="userSpaceOnUse"><stop stop-color="#FF3C00"/><stop offset="1" stop-color="#fff"/></linearGradient><linearGradient id="K" x1="162.898" x2="216.217" y1="61.51" y2="260.5" gradientUnits="userSpaceOnUse"><stop stop-color="#FF3C00"/><stop offset="1" stop-color="#fff"/></linearGradient><linearGradient id="L" x1="162.898" x2="216.217" y1="61.51" y2="260.5" gradientUnits="userSpaceOnUse"><stop stop-color="#FF3C00"/><stop offset="1" stop-color="#fff"/></linearGradient><linearGradient id="M" x1="162.898" x2="216.217" y1="61.51" y2="260.5" gradientUnits="userSpaceOnUse"><stop stop-color="#FF3C00"/><stop offset="1" stop-color="#fff"/></linearGradient><linearGradient id="N" x1="162.898" x2="216.217" y1="61.51" y2="260.5" gradientUnits="userSpaceOnUse"><stop stop-color="#FF3C00"/><stop offset="1" stop-color="#fff"/></linearGradient><linearGradient id="O" x1="162.898" x2="216.217" y1="61.51" y2="260.5" gradientUnits="userSpaceOnUse"><stop stop-color="#FF3C00"/><stop offset="1" stop-color="#fff"/></linearGradient><linearGradient id="P" x1="162.898" x2="216.217" y1="61.51" y2="260.5" gradientUnits="userSpaceOnUse"><stop stop-color="#FF3C00"/><stop offset="1" stop-color="#fff"/></linearGradient><linearGradient id="Q" x1="162.898" x2="216.217" y1="61.51" y2="260.5" gradientUnits="userSpaceOnUse"><stop stop-color="#FF3C00"/><stop offset="1" stop-color="#fff"/></linearGradient><linearGradient id="R" x1="162.898" x2="216.217" y1="61.51" y2="260.5" gradientUnits="userSpaceOnUse"><stop stop-color="#FF3C00"/><stop offset="1" stop-color="#fff"/></linearGradient><linearGradient id="S" x1="162.898" x2="216.217" y1="61.51" y2="260.5" gradientUnits="userSpaceOnUse"><stop stop-color="#FF3C00"/><stop offset="1" stop-color="#fff"/></linearGradient><linearGradient id="T" x1="162.898" x2="216.217" y1="61.51" y2="260.5" gradientUnits="userSpaceOnUse"><stop stop-color="#FF3C00"/><stop offset="1" stop-color="#fff"/></linearGradient></defs></svg>