<svg xmlns="http://www.w3.org/2000/svg" width="100" height="25" fill="none"><g clip-path="url(#a)"><path fill="#0A0A0A" fill-rule="evenodd" d="M0 9.575v9.232h2.875a2.293 2.293 0 0 1 1.626.676 2.309 2.309 0 0 1 .674 1.632V24h6.9l8.625-8.655V6.113h-2.875A2.294 2.294 0 0 1 15.7 4.688a2.316 2.316 0 0 1-.175-.883V.92h-6.9L0 9.575Zm9.775 8.655H5.75v-6.347l5.175-5.193h4.025v6.347L9.775 18.23Z" clip-rule="evenodd"/></g><path fill="#000" d="M26.703 24V3.375h4.324c1.094 0 1.903.195 2.426.586.524.383.863.965 1.02 1.746.164.773.246 1.75.246 2.93 0 1.273-.13 2.285-.387 3.035-.258.75-.758 1.234-1.5 1.453.375.063.684.223.926.48.25.258.445.66.586 1.207.14.547.238 1.282.293 2.204.062.914.093 2.066.093 3.457v.574c0 .25.004.523.012.82l.024.88c.015.288.035.546.058.773a2.1 2.1 0 0 0 .094.48h-2.414c-.031-.07-.059-.227-.082-.469a17.49 17.49 0 0 1-.059-.96 58.048 58.048 0 0 1-.035-1.419c-.008-.554-.012-1.172-.012-1.851v-2.25c0-.781-.035-1.375-.105-1.781-.063-.415-.219-.7-.469-.856-.242-.164-.633-.262-1.172-.293l-1.441-.082V24h-2.426Zm2.426-11.742h1.547c.445 0 .785-.086 1.02-.258.241-.18.406-.531.491-1.055.086-.53.13-1.324.13-2.379v-.14c0-.875-.044-1.535-.13-1.98-.078-.454-.234-.758-.468-.915-.235-.156-.59-.234-1.067-.234H29.13v6.96ZM41.352 24.21c-.844 0-1.524-.145-2.04-.434a2.906 2.906 0 0 1-1.16-1.254c-.265-.539-.445-1.183-.539-1.933a22.354 22.354 0 0 1-.129-2.508v-6.21c0-.829.059-1.587.176-2.274.117-.696.32-1.293.61-1.793.289-.508.69-.899 1.207-1.172.515-.281 1.171-.422 1.968-.422.805 0 1.453.14 1.946.422.492.281.863.68 1.113 1.195.258.508.43 1.117.516 1.828a19.2 19.2 0 0 1 .128 2.32v3.317h-5.25v3.504c0 1.11.075 1.957.223 2.543.156.578.574.867 1.254.867.445 0 .762-.137.95-.41.194-.281.312-.672.35-1.172.048-.508.071-1.105.071-1.793v-1.418h2.356v.75a23.9 23.9 0 0 1-.118 2.484c-.07.743-.226 1.38-.468 1.91a2.646 2.646 0 0 1-1.125 1.231c-.5.281-1.18.422-2.04.422Zm-1.465-10.547h2.86v-2.238c0-.703-.024-1.293-.071-1.77-.047-.484-.16-.847-.34-1.09-.18-.25-.477-.375-.89-.375-.462 0-.805.141-1.032.422-.219.282-.363.672-.434 1.172a13.855 13.855 0 0 0-.093 1.723v2.156ZM49.484 24 46.941 6.422h2.18l1.371 9.973.48 4.16h.083l.41-4.172 1.219-9.961h2.191L52.309 24h-2.825Zm11.332.21c-.828 0-1.5-.14-2.015-.42a2.993 2.993 0 0 1-1.196-1.22c-.273-.53-.46-1.164-.562-1.898a18.425 18.425 0 0 1-.152-2.485v-6.222c0-1.102.105-2.086.316-2.953.211-.867.598-1.551 1.16-2.051.57-.5 1.387-.75 2.45-.75.796 0 1.449.144 1.956.434.508.28.903.683 1.184 1.207.281.515.473 1.125.574 1.828.11.695.164 1.457.164 2.285v6.223c0 .898-.047 1.714-.14 2.449-.094.734-.278 1.37-.551 1.91a2.83 2.83 0 0 1-1.172 1.23c-.508.29-1.18.434-2.016.434Zm0-2.003c.422 0 .735-.14.938-.422.21-.281.352-.672.422-1.172.07-.508.105-1.093.105-1.758v-7.37c0-.657-.035-1.227-.105-1.712-.07-.492-.211-.875-.422-1.148-.211-.273-.523-.41-.938-.41-.437 0-.765.137-.984.41-.219.273-.363.656-.434 1.148a13.57 13.57 0 0 0-.093 1.711v7.371c0 .665.03 1.25.093 1.758.07.5.215.89.434 1.172.219.281.547.422.984.422ZM67.824 24V6.422h2.403V8.25a2.937 2.937 0 0 1 .937-1.441c.477-.407 1.078-.61 1.805-.61.578 0 1.082.14 1.512.422.43.281.753.734.972 1.36.29-.532.688-.961 1.195-1.29.508-.328 1.102-.492 1.782-.492.93 0 1.636.332 2.12.996.485.657.727 1.633.727 2.93V24h-2.402V10.055c0-.664-.129-1.125-.387-1.383-.257-.266-.597-.399-1.02-.399-.6 0-1.038.137-1.312.41-.265.266-.398.747-.398 1.442V24h-2.414V10.043c0-.625-.121-1.074-.363-1.348-.243-.28-.583-.422-1.02-.422-.57 0-1.004.184-1.3.551-.29.367-.434.864-.434 1.489V24h-2.403Zm16.828 0V6.422h2.414V24h-2.414Zm0-19.195V2.602h2.414v2.203h-2.414Zm8.496 19.347c-1.062 0-1.828-.41-2.296-1.23-.47-.828-.708-1.973-.715-3.434v-1.71c0-.774.132-1.415.398-1.922.266-.516.64-.946 1.125-1.29a8.793 8.793 0 0 1 1.711-.925 96.386 96.386 0 0 1 2.156-.891v-1.36c0-.75-.023-1.355-.07-1.816-.047-.469-.168-.812-.363-1.031-.188-.219-.492-.328-.914-.328-.414 0-.727.11-.938.328-.203.219-.336.562-.398 1.031-.063.469-.094 1.078-.094 1.828v.61h-2.39v-.504c0-.75.046-1.445.14-2.086.094-.649.273-1.211.54-1.688a2.753 2.753 0 0 1 1.16-1.113c.515-.273 1.19-.41 2.027-.41.796 0 1.437.129 1.921.387.493.25.868.62 1.125 1.113.266.492.446 1.101.54 1.828.093.719.14 1.55.14 2.496V24H95.54v-1.523c-.07.234-.207.484-.41.75a2.564 2.564 0 0 1-.797.656c-.328.18-.723.27-1.184.27Zm.68-1.945c.422 0 .785-.133 1.09-.398.305-.274.508-.543.61-.809v-6.691a17.74 17.74 0 0 0-1.489.726c-.383.211-.683.434-.902.668-.211.235-.36.516-.446.844-.085.328-.129.742-.129 1.242v1.629c0 .992.086 1.707.258 2.145.172.43.508.644 1.008.644Z"/><defs><clipPath id="a"><path fill="#fff" d="M0 .92h20.7V24H0z"/></clipPath></defs></svg>