<svg xmlns="http://www.w3.org/2000/svg" width="96" height="20" fill="none"><g clip-path="url(#a)"><path fill="#EB37EE" d="M16.907 17.463a5.154 5.154 0 0 0 3.533-8.795L11.866.088v5.334c0 .891.354 1.747.984 2.377l2.009 2.01.005.005 3.368 3.37a.28.28 0 0 1-.396.397l-1.161-1.162H5.937l-1.161 1.162a.28.28 0 1 1-.396-.397l3.368-3.37.005-.005L9.761 7.8c.63-.63.985-1.486.985-2.377V.089l-8.574 8.58a5.154 5.154 0 0 0 3.533 8.794h11.202Z"/></g><path fill="#0A0A0A" d="M28.698 15.089V2.319h6.82c1.35 0 2.211.302 2.583.908.372.599.558 1.277.558 2.034 0 .788-.17 1.469-.51 2.043-.341.567-.849.867-1.523.898.706.038 1.264.354 1.674.946.41.587.615 1.347.615 2.28 0 1.053-.186 1.927-.559 2.62-.372.694-1.22 1.04-2.544 1.04h-7.113Zm2.318-1.59h4.21c.523 0 .882-.192 1.078-.576.202-.391.302-.968.302-1.731 0-.713-.12-1.265-.359-1.656-.24-.39-.687-.586-1.343-.586h-3.888v4.55Zm0-5.978h3.746c.593 0 1-.176 1.22-.53.227-.359.34-.825.34-1.4 0-.535-.094-.952-.283-1.248-.183-.296-.546-.445-1.088-.445h-3.935v3.623Zm16.718 1.665c0-1.5-.176-2.51-.53-3.027-.352-.523-.866-.785-1.541-.785-.77 0-1.378.262-1.826.785a2.636 2.636 0 0 0-.662 1.76l-.88-.587c0-.99.382-1.829 1.145-2.516.77-.694 1.79-1.04 3.065-1.04 1.337 0 2.257.435 2.762 1.305.504.864.757 2.232.757 4.105h-2.29Zm-6.83 5.903V3.879h1.78l.5 2.1v9.11h-2.28Zm11.406 0V3.87h2.29v11.219h-2.29Zm0-14.369h2.29v1.845h-2.29V.72Zm4.86 14.37V.238h2.28v14.85h-2.28Zm9.271.085c-1.785 0-3.09-.476-3.916-1.428-.826-.953-1.24-2.384-1.24-4.295 0-1.917.414-3.345 1.24-4.285.826-.94 2.131-1.41 3.916-1.41 1.79 0 3.096.47 3.916 1.41.826.94 1.24 2.368 1.24 4.285 0 1.91-.414 3.342-1.24 4.295-.82.952-2.125 1.428-3.916 1.428Zm0-1.57c.839 0 1.526-.284 2.062-.852.536-.574.804-1.67.804-3.291 0-1.627-.268-2.722-.804-3.283-.536-.567-1.223-.851-2.062-.851-.832 0-1.52.284-2.062.851-.536.561-.804 1.656-.804 3.283 0 1.62.268 2.717.804 3.291.542.568 1.23.852 2.062.852Zm13.756-4.418c0-1.5-.177-2.51-.53-3.027-.353-.523-.867-.785-1.542-.785-.77 0-1.378.262-1.826.785a2.636 2.636 0 0 0-.662 1.76l-.88-.587c0-.99.382-1.829 1.145-2.516.77-.694 1.791-1.04 3.065-1.04 1.337 0 2.258.435 2.762 1.305.505.864.757 2.232.757 4.105h-2.29Zm-6.83 5.903V3.879h1.778l.502 2.1v9.11h-2.28Zm14.683.104a7.8 7.8 0 0 1-1.656-.16 3.396 3.396 0 0 1-1.258-.54 2.508 2.508 0 0 1-.804-1.05c-.183-.441-.274-.996-.274-1.665 0-.637.088-1.167.265-1.59.183-.428.444-.768.785-1.02.34-.253.757-.433 1.249-.54a7.427 7.427 0 0 1 1.665-.17h3.623V7.88c0-.612-.105-1.104-.313-1.476a1.84 1.84 0 0 0-.898-.823c-.385-.17-.845-.255-1.381-.255-.455 0-.864.075-1.23.227-.36.151-.662.4-.908.747s-.413.807-.502 1.381l-2.242-.605c.108-.606.306-1.12.596-1.542a3.571 3.571 0 0 1 1.088-1.022 4.94 4.94 0 0 1 1.457-.567 8.01 8.01 0 0 1 1.731-.18c1.053 0 1.942.142 2.668.426.731.283 1.286.734 1.665 1.352.378.612.567 1.429.567 2.45v7.095h-1.91l-.19-1.381a1.75 1.75 0 0 1-.445.501 3.88 3.88 0 0 1-.794.483 5.36 5.36 0 0 1-1.126.368 7.013 7.013 0 0 1-1.428.133Zm.501-1.485a4.93 4.93 0 0 0 1.429-.19 3.635 3.635 0 0 0 1.04-.5c.284-.209.483-.423.596-.644v-2.65H88.56c-.31 0-.6.029-.87.086a1.74 1.74 0 0 0-.691.283 1.39 1.39 0 0 0-.464.606c-.107.258-.16.593-.16 1.002 0 .41.053.745.16 1.003.114.259.268.46.464.605.202.146.435.25.7.313.265.056.549.085.851.085Z"/><defs><clipPath id="a"><path fill="#fff" d="M.664.089h21.284v17.374H.664z"/></clipPath></defs></svg>