<svg xmlns="http://www.w3.org/2000/svg" width="363" height="309" fill="none"><g clip-path="url(#a)"><path fill="#fff" d="M0 0h363v309H0z"/><path stroke="#fff" stroke-dasharray="5 5" stroke-opacity=".18" stroke-width="1.5" d="M0 214.862c38.167-18.167 131.3-45.9 198.5-11.5 67.2 34.4 114.667 14.333 130 0"/><path fill="#3B3B3B" fill-opacity=".72" d="M33.233 279.818h1.472l3.46 8.452h.12l3.46-8.452h1.47V290h-1.153v-7.736h-.099L38.781 290h-1.113l-3.182-7.736h-.1V290h-1.153v-10.182Zm14.543 10.361c-.484 0-.923-.091-1.317-.273a2.265 2.265 0 0 1-.94-.801c-.232-.351-.348-.775-.348-1.273 0-.437.086-.792.258-1.064a1.83 1.83 0 0 1 .692-.646c.288-.156.606-.272.954-.348a11.94 11.94 0 0 1 1.06-.189c.463-.059.84-.104 1.128-.134.291-.033.503-.088.636-.164.136-.076.204-.209.204-.398v-.04c0-.49-.134-.871-.403-1.143-.265-.272-.668-.408-1.208-.408-.56 0-1 .123-1.317.368-.319.245-.542.507-.672.786l-1.113-.398c.199-.464.464-.825.795-1.084.335-.262.7-.444 1.094-.547a4.544 4.544 0 0 1 1.173-.159c.245 0 .527.03.845.09.322.056.632.174.93.353.302.179.552.449.75.81.2.361.3.845.3 1.452V290h-1.174v-1.034h-.06c-.08.166-.212.343-.398.532-.185.189-.432.35-.74.482-.309.133-.685.199-1.129.199Zm.18-1.054c.463 0 .854-.091 1.172-.273a1.863 1.863 0 0 0 .975-1.616v-1.074c-.05.06-.16.114-.328.164a5.527 5.527 0 0 1-.577.124c-.215.033-.426.063-.631.09-.203.023-.367.043-.493.059a4.55 4.55 0 0 0-.855.194 1.47 1.47 0 0 0-.636.393c-.16.172-.239.408-.239.706 0 .408.151.716.453.925.305.205.69.308 1.158.308Zm5.944 3.739a2.58 2.58 0 0 1-.532-.05 1.398 1.398 0 0 1-.323-.09l.298-1.034c.285.073.537.1.756.08a.909.909 0 0 0 .581-.293c.173-.173.33-.453.473-.841l.218-.596-2.823-7.676h1.272l2.108 6.085h.08l2.108-6.085h1.273l-3.242 8.75a3.306 3.306 0 0 1-.542.979 2.03 2.03 0 0 1-.75.582c-.282.126-.6.189-.955.189Zm31.73-13.046h1.234v7.279c0 .649-.12 1.201-.358 1.655a2.43 2.43 0 0 1-1.01 1.034c-.434.236-.946.353-1.536.353-.557 0-1.052-.101-1.486-.303a2.453 2.453 0 0 1-1.024-.875c-.249-.378-.373-.827-.373-1.347h1.213c0 .288.071.54.214.755.145.212.344.378.596.497.252.12.539.179.86.179.355 0 .657-.074.905-.223a1.41 1.41 0 0 0 .567-.657c.132-.291.199-.647.199-1.068v-7.279Zm8.358 7.06v-4.514h1.173V290h-1.173v-1.293h-.08a2.508 2.508 0 0 1-.835.99c-.378.268-.855.402-1.432.402-.477 0-.901-.104-1.272-.313a2.191 2.191 0 0 1-.875-.954c-.213-.428-.319-.966-.319-1.616v-4.852h1.174v4.772c0 .557.155 1.001.467 1.333.315.331.716.497 1.203.497a2 2 0 0 0 .89-.224 1.94 1.94 0 0 0 .766-.686c.209-.308.313-.701.313-1.178Zm4.496-1.472V290H97.31v-7.636h1.134v1.193h.1c.178-.388.45-.7.815-.935.364-.238.835-.358 1.411-.358.517 0 .97.106 1.358.318.387.209.689.527.904.955.216.424.324.961.324 1.611V290h-1.174v-4.773c0-.6-.155-1.067-.467-1.402-.312-.338-.739-.507-1.283-.507-.374 0-.709.081-1.004.244a1.738 1.738 0 0 0-.691.711c-.169.311-.253.689-.253 1.133Z"/><path fill="#0A0A0A" d="M130.131 279.818h1.233v7.279c0 .649-.12 1.201-.358 1.655a2.43 2.43 0 0 1-1.01 1.034c-.434.236-.946.353-1.536.353-.557 0-1.052-.101-1.486-.303a2.45 2.45 0 0 1-1.024-.875c-.249-.378-.373-.827-.373-1.347h1.213c0 .288.071.54.214.755.145.212.344.378.596.497.252.12.539.179.86.179.355 0 .656-.074.905-.223a1.41 1.41 0 0 0 .567-.657c.132-.291.199-.647.199-1.068v-7.279Zm8.357 7.06v-4.514h1.173V290h-1.173v-1.293h-.08a2.505 2.505 0 0 1-.835.99c-.378.268-.855.402-1.432.402-.477 0-.901-.104-1.272-.313-.372-.212-.663-.53-.875-.954-.213-.428-.319-.966-.319-1.616v-4.852h1.174v4.772c0 .557.155 1.001.467 1.333.315.331.716.497 1.203.497a2 2 0 0 0 .89-.224c.305-.149.56-.378.766-.686.209-.308.313-.701.313-1.178Zm4.495-7.06V290h-1.173v-10.182h1.173Z"/><path fill="#3B3B3B" fill-opacity=".72" d="M167.151 290h-1.293l3.739-10.182h1.272L174.608 290h-1.293l-3.042-8.571h-.08L167.151 290Zm.477-3.977h5.21v1.093h-5.21v-1.093Zm13.219.855v-4.514h1.174V290h-1.174v-1.293h-.079a2.514 2.514 0 0 1-.835.99c-.378.268-.856.402-1.432.402-.478 0-.902-.104-1.273-.313a2.192 2.192 0 0 1-.875-.954c-.212-.428-.318-.966-.318-1.616v-4.852h1.173v4.772c0 .557.156 1.001.467 1.333.315.331.716.497 1.204.497.291 0 .588-.075.889-.224.305-.149.561-.378.766-.686.209-.308.313-.701.313-1.178Zm6.405 6.145c-.567 0-1.054-.073-1.462-.219a3.106 3.106 0 0 1-1.019-.567 3.092 3.092 0 0 1-.641-.746l.934-.656c.107.139.241.299.403.477.163.183.385.34.666.473.285.136.658.204 1.119.204.616 0 1.125-.15 1.526-.448.401-.298.602-.765.602-1.402v-1.551h-.1a6.022 6.022 0 0 1-.368.517c-.155.202-.381.383-.676.542-.291.156-.686.234-1.183.234-.616 0-1.17-.146-1.66-.438-.488-.291-.874-.716-1.159-1.273-.282-.556-.422-1.233-.422-2.028 0-.782.137-1.463.412-2.043.275-.584.658-1.034 1.149-1.353.49-.321 1.057-.482 1.7-.482.497 0 .892.083 1.183.249.295.162.521.348.676.557.159.205.282.374.368.507h.12v-1.213h1.133v7.855c0 .656-.149 1.19-.447 1.601a2.546 2.546 0 0 1-1.194.909 4.489 4.489 0 0 1-1.66.294Zm-.04-4.196c.471 0 .869-.108 1.193-.323.325-.216.572-.526.741-.93.169-.404.254-.888.254-1.452 0-.55-.083-1.036-.249-1.457a2.192 2.192 0 0 0-.736-.989c-.325-.239-.726-.358-1.203-.358-.497 0-.911.126-1.243.378-.328.252-.575.59-.74 1.014a3.908 3.908 0 0 0-.244 1.412c0 .53.083.999.248 1.407.17.404.418.723.746.955.332.228.743.343 1.233.343Zm32.589-6.463a1.562 1.562 0 0 0-.726-1.174c-.424-.278-.944-.417-1.561-.417-.451 0-.845.073-1.183.218a1.894 1.894 0 0 0-.786.602 1.445 1.445 0 0 0-.278.87c0 .272.065.506.194.701.133.192.302.353.507.482.206.126.421.231.646.314.226.079.433.144.622.193l1.034.279c.265.069.56.166.885.288.328.123.641.29.939.502.302.209.551.478.746.806.196.328.294.731.294 1.208 0 .55-.145 1.047-.433 1.491-.285.444-.703.797-1.253 1.059-.547.262-1.211.393-1.993.393-.73 0-1.361-.118-1.895-.353-.53-.235-.948-.563-1.252-.984a2.809 2.809 0 0 1-.513-1.467h1.273c.033.384.163.703.388.955a2.1 2.1 0 0 0 .865.556c.351.12.729.179 1.134.179.47 0 .893-.076 1.267-.228.375-.156.671-.372.89-.647.219-.278.328-.603.328-.974 0-.338-.094-.613-.283-.825a2.078 2.078 0 0 0-.746-.517 7.687 7.687 0 0 0-.999-.348l-1.253-.358c-.795-.229-1.425-.556-1.889-.98-.464-.424-.696-.979-.696-1.665 0-.57.154-1.068.462-1.492a3.073 3.073 0 0 1 1.253-.994 4.224 4.224 0 0 1 1.765-.358c.656 0 1.24.118 1.75.353.51.232.915.55 1.213.955.302.404.461.863.477 1.377h-1.193Zm6.402 7.795c-.735 0-1.37-.162-1.904-.487a3.28 3.28 0 0 1-1.228-1.372c-.285-.59-.427-1.276-.427-2.059 0-.782.142-1.471.427-2.068.289-.6.69-1.067 1.203-1.402.517-.338 1.121-.507 1.81-.507.398 0 .79.066 1.178.199.388.133.741.348 1.059.646.318.295.572.686.761 1.174.189.487.283 1.087.283 1.799v.498h-5.886v-1.015h4.693c0-.431-.086-.815-.258-1.153a1.95 1.95 0 0 0-.726-.8c-.312-.196-.68-.294-1.104-.294-.467 0-.872.116-1.213.348a2.298 2.298 0 0 0-.781.895 2.632 2.632 0 0 0-.273 1.183v.676c0 .577.099 1.066.298 1.467.202.398.482.701.84.91.358.205.774.308 1.248.308.309 0 .587-.043.836-.129.251-.09.469-.222.651-.398.182-.179.323-.401.422-.666l1.134.318c-.119.385-.32.723-.602 1.014a2.905 2.905 0 0 1-1.044.676c-.414.16-.88.239-1.397.239Zm4.947 2.705v-10.5h1.134v1.213h.139c.086-.133.205-.302.358-.507.155-.209.378-.395.666-.557.292-.166.686-.249 1.183-.249.643 0 1.21.161 1.7.482.491.322.874.778 1.149 1.368.275.59.413 1.286.413 2.088 0 .808-.138 1.509-.413 2.103-.275.59-.656 1.047-1.144 1.372-.487.321-1.049.482-1.685.482-.49 0-.883-.081-1.178-.244a2.182 2.182 0 0 1-.681-.561 7.523 7.523 0 0 1-.368-.527h-.1v4.037h-1.173Zm1.153-6.682c0 .577.085 1.085.254 1.526.169.438.416.781.741 1.029.325.245.722.368 1.193.368.49 0 .9-.129 1.228-.388.331-.262.58-.613.746-1.054.169-.444.253-.938.253-1.481 0-.537-.083-1.021-.248-1.452a2.252 2.252 0 0 0-.741-1.029c-.328-.255-.741-.383-1.238-.383-.477 0-.878.121-1.203.363-.325.239-.57.573-.736 1.004-.166.428-.249.927-.249 1.497Zm37.021-1.273c0 1.074-.194 2.002-.582 2.784-.388.782-.92 1.386-1.596 1.81-.676.424-1.448.636-2.316.636-.869 0-1.641-.212-2.317-.636-.676-.424-1.208-1.028-1.596-1.81-.388-.782-.582-1.71-.582-2.784 0-1.074.194-2.002.582-2.784.388-.782.92-1.385 1.596-1.81.676-.424 1.448-.636 2.317-.636.868 0 1.64.212 2.316.636.676.425 1.208 1.028 1.596 1.81.388.782.582 1.71.582 2.784Zm-1.193 0c0-.882-.148-1.626-.443-2.232-.291-.607-.688-1.066-1.188-1.377a3.077 3.077 0 0 0-1.67-.468c-.617 0-1.175.156-1.676.468-.497.311-.893.77-1.188 1.377-.292.606-.438 1.35-.438 2.232 0 .882.146 1.626.438 2.232.295.607.691 1.066 1.188 1.377a3.105 3.105 0 0 0 1.676.468c.616 0 1.173-.156 1.67-.468.5-.311.897-.77 1.188-1.377.295-.606.443-1.35.443-2.232Zm6.209 5.25c-.716 0-1.332-.169-1.849-.507a3.303 3.303 0 0 1-1.193-1.397c-.279-.593-.418-1.271-.418-2.033 0-.776.142-1.46.428-2.054a3.38 3.38 0 0 1 1.203-1.397c.517-.338 1.12-.507 1.809-.507.537 0 1.021.1 1.452.298.431.199.784.478 1.059.836a2.6 2.6 0 0 1 .512 1.253h-1.173a1.824 1.824 0 0 0-.597-.925c-.305-.272-.716-.408-1.233-.408a2.06 2.06 0 0 0-1.203.358c-.341.235-.608.569-.8.999-.189.428-.284.93-.284 1.507 0 .59.093 1.104.279 1.541.189.438.454.777.795 1.019.345.242.749.363 1.213.363.305 0 .582-.053.83-.159.249-.106.459-.259.632-.457.172-.199.295-.438.368-.716h1.173a2.72 2.72 0 0 1-.492 1.218 2.756 2.756 0 0 1-1.029.855c-.425.209-.918.313-1.482.313Zm8.039-7.795v.994h-3.957v-.994h3.957Zm-2.804-1.83h1.174v7.278c0 .332.048.581.144.746a.739.739 0 0 0 .378.328c.155.053.319.08.492.08.129 0 .235-.007.318-.02l.199-.04.238 1.054c-.079.03-.19.06-.333.09a2.463 2.463 0 0 1-.542.049c-.331 0-.656-.071-.974-.213a1.931 1.931 0 0 1-.785-.652c-.206-.291-.309-.659-.309-1.103v-7.597Zm33.732-.716V290h-1.193l-5.549-7.994h-.099V290h-1.233v-10.182h1.193l5.568 8.014h.1v-8.014h1.213Zm5.41 10.341c-.689 0-1.294-.164-1.814-.492a3.34 3.34 0 0 1-1.214-1.377c-.288-.59-.432-1.28-.432-2.068 0-.796.144-1.49.432-2.084a3.342 3.342 0 0 1 1.214-1.382c.52-.328 1.125-.492 1.814-.492.69 0 1.293.164 1.81.492.52.329.925.789 1.213 1.382.292.594.437 1.288.437 2.084 0 .788-.145 1.478-.437 2.068a3.296 3.296 0 0 1-1.213 1.377c-.517.328-1.12.492-1.81.492Zm0-1.054c.524 0 .955-.134 1.293-.403.338-.268.588-.621.75-1.059.163-.437.244-.911.244-1.421 0-.511-.081-.986-.244-1.427a2.401 2.401 0 0 0-.75-1.069c-.338-.272-.769-.408-1.293-.408-.524 0-.954.136-1.292.408a2.395 2.395 0 0 0-.751 1.069 4.081 4.081 0 0 0-.244 1.427c0 .51.081.984.244 1.421.162.438.412.791.751 1.059.338.269.768.403 1.292.403Zm11.222-6.741L327.115 290h-1.193l-2.824-7.636h1.273l2.108 6.085h.08l2.108-6.085h1.272Z"/><rect width="110" height="26" x="149" y="43" fill="#FF3C00" rx="13"/><path fill="#fff" d="M165.057 62.273V49.545h.815v12.728h-.815Zm2.744-8.91a1.56 1.56 0 0 0-.726-1.173c-.424-.278-.944-.417-1.561-.417-.451 0-.845.073-1.183.218a1.89 1.89 0 0 0-.786.602 1.446 1.446 0 0 0-.278.87c0 .272.065.505.194.701.133.192.302.353.507.482.206.126.421.23.646.313a7.6 7.6 0 0 0 .622.194l1.034.279c.265.07.56.165.885.288.328.123.641.29.939.502.302.21.551.478.746.806.196.328.294.73.294 1.208 0 .55-.145 1.047-.433 1.491-.285.444-.703.797-1.253 1.06-.547.261-1.211.392-1.993.392-.73 0-1.361-.118-1.895-.353-.53-.235-.948-.563-1.252-.984a2.808 2.808 0 0 1-.513-1.467h1.273c.033.385.163.703.388.955a2.1 2.1 0 0 0 .865.556c.351.12.729.18 1.134.18.47 0 .893-.077 1.267-.23a2.16 2.16 0 0 0 .89-.646 1.53 1.53 0 0 0 .328-.974c0-.338-.094-.613-.283-.825a2.084 2.084 0 0 0-.746-.517 7.808 7.808 0 0 0-.999-.348l-1.253-.358c-.795-.23-1.425-.556-1.889-.98-.464-.424-.696-.98-.696-1.665 0-.57.154-1.068.462-1.492a3.073 3.073 0 0 1 1.253-.994 4.23 4.23 0 0 1 1.765-.358c.656 0 1.24.118 1.75.353.51.232.915.55 1.213.955.302.404.461.863.477 1.377h-1.193Zm6.363 7.776a3.493 3.493 0 0 1-1.576-.348 2.925 2.925 0 0 1-1.124-.954 2.593 2.593 0 0 1-.462-1.383h1.193c.046.461.255.842.626 1.144.375.298.822.447 1.343.447.417 0 .788-.097 1.113-.293.328-.195.585-.464.771-.805a2.39 2.39 0 0 0 .283-1.169c0-.444-.098-.84-.293-1.188a2.153 2.153 0 0 0-.796-.83 2.247 2.247 0 0 0-1.158-.308 3.185 3.185 0 0 0-.96.144 2.65 2.65 0 0 0-.81.373l-1.153-.14.616-5.01h5.29v1.093h-4.256l-.358 3.003h.06c.209-.166.471-.303.785-.413.315-.11.643-.164.985-.164a3.134 3.134 0 0 1 2.819 1.661c.281.513.422 1.1.422 1.76 0 .65-.146 1.23-.437 1.74a3.203 3.203 0 0 1-1.193 1.203c-.507.291-1.084.437-1.73.437Zm5.097-2.227v-1.014l4.474-7.08h.736v1.571h-.497l-3.381 5.35v.08h6.026v1.093h-7.358ZM184.053 61V50.818h1.174V61h-1.174Zm7.75.14c-.749 0-1.387-.205-1.914-.612-.527-.411-.93-1.006-1.208-1.785-.279-.782-.418-1.727-.418-2.834 0-1.1.139-2.04.418-2.819.281-.782.686-1.379 1.213-1.79.53-.414 1.166-.621 1.909-.621.742 0 1.377.207 1.904.621.53.411.935 1.008 1.213 1.79.282.78.423 1.719.423 2.82 0 1.106-.14 2.05-.418 2.833-.279.779-.681 1.374-1.208 1.785-.527.407-1.165.611-1.914.611Zm0-1.095c.742 0 1.319-.358 1.73-1.073.411-.716.616-1.737.616-3.063 0-.881-.094-1.632-.283-2.252-.186-.62-.454-1.092-.805-1.417a1.779 1.779 0 0 0-1.258-.487c-.736 0-1.311.363-1.725 1.089-.415.722-.622 1.745-.622 3.067 0 .882.093 1.63.279 2.247.185.617.452 1.086.8 1.407a1.81 1.81 0 0 0 1.268.482Zm6.843-.437-.079.537a10.99 10.99 0 0 1-.259 1.213c-.113.43-.23.837-.353 1.218-.123.381-.224.684-.303.91h-.895l.169-.84c.07-.348.139-.738.209-1.169.073-.427.132-.865.179-1.312l.059-.557h1.273Zm5.131 1.531a3.493 3.493 0 0 1-1.576-.348 2.925 2.925 0 0 1-1.124-.954 2.602 2.602 0 0 1-.462-1.383h1.193c.046.461.255.842.626 1.144.375.298.822.447 1.343.447a2.11 2.11 0 0 0 1.113-.293c.329-.195.585-.464.771-.805a2.39 2.39 0 0 0 .283-1.169c0-.444-.097-.84-.293-1.188a2.15 2.15 0 0 0-.795-.83 2.25 2.25 0 0 0-1.159-.308 3.18 3.18 0 0 0-.959.144c-.328.096-.599.22-.811.373l-1.153-.14.616-5.01h5.29v1.093h-4.255l-.358 3.003h.059a2.66 2.66 0 0 1 .786-.413 2.98 2.98 0 0 1 .984-.164 3.14 3.14 0 0 1 2.819 1.661c.282.513.423 1.1.423 1.76 0 .65-.146 1.23-.438 1.74a3.196 3.196 0 0 1-1.193 1.203c-.507.291-1.084.437-1.73.437Zm8.657 0c-.749 0-1.387-.204-1.914-.611-.527-.411-.93-1.006-1.209-1.785-.278-.782-.417-1.727-.417-2.834 0-1.1.139-2.04.417-2.819.282-.782.687-1.379 1.214-1.79.53-.414 1.166-.621 1.909-.621.742 0 1.377.207 1.904.621.53.411.934 1.008 1.213 1.79.282.78.422 1.719.422 2.82 0 1.106-.139 2.05-.417 2.833-.279.779-.681 1.374-1.208 1.785-.527.407-1.165.611-1.914.611Zm0-1.094c.742 0 1.319-.358 1.73-1.073.411-.716.616-1.737.616-3.063 0-.881-.094-1.632-.283-2.252-.186-.62-.454-1.092-.806-1.417a1.776 1.776 0 0 0-1.257-.487c-.736 0-1.311.363-1.726 1.089-.414.722-.621 1.745-.621 3.067 0 .882.093 1.63.278 2.247.186.617.453 1.086.801 1.407a1.81 1.81 0 0 0 1.268.482Zm6.843-.437-.08.537c-.056.378-.142.782-.258 1.213-.113.43-.23.837-.353 1.218-.123.381-.224.684-.303.91h-.895l.169-.84c.069-.348.139-.738.209-1.169.073-.427.132-.865.179-1.312l.059-.557h1.273Zm5.119 1.531c-.749 0-1.387-.204-1.914-.611-.527-.411-.929-1.006-1.208-1.785-.278-.782-.417-1.727-.417-2.834 0-1.1.139-2.04.417-2.819.282-.782.686-1.379 1.213-1.79.531-.414 1.167-.621 1.909-.621.743 0 1.378.207 1.905.621.53.411.934 1.008 1.213 1.79.281.78.422 1.719.422 2.82 0 1.106-.139 2.05-.417 2.833-.279.779-.681 1.374-1.208 1.785-.527.407-1.165.611-1.915.611Zm0-1.094c.743 0 1.32-.358 1.731-1.073.411-.716.616-1.737.616-3.063 0-.881-.094-1.632-.283-2.252-.186-.62-.454-1.092-.806-1.417a1.777 1.777 0 0 0-1.258-.487c-.735 0-1.31.363-1.725 1.089-.414.722-.621 1.745-.621 3.067 0 .882.093 1.63.278 2.247.186.617.453 1.086.801 1.407.351.322.774.482 1.267.482Zm8.75 1.094c-.749 0-1.387-.204-1.914-.611-.527-.411-.929-1.006-1.208-1.785-.278-.782-.417-1.727-.417-2.834 0-1.1.139-2.04.417-2.819.282-.782.686-1.379 1.213-1.79.531-.414 1.167-.621 1.909-.621.743 0 1.378.207 1.905.621.53.411.934 1.008 1.213 1.79.281.78.422 1.719.422 2.82 0 1.106-.139 2.05-.417 2.833-.279.779-.681 1.374-1.208 1.785-.527.407-1.165.611-1.915.611Zm0-1.094c.743 0 1.32-.358 1.731-1.073.411-.716.616-1.737.616-3.063 0-.881-.094-1.632-.283-2.252-.186-.62-.454-1.092-.806-1.417a1.777 1.777 0 0 0-1.258-.487c-.735 0-1.31.363-1.725 1.089-.414.722-.621 1.745-.621 3.067 0 .882.093 1.63.278 2.247.186.617.453 1.086.801 1.407.351.322.774.482 1.267.482Zm8.75 1.094c-.749 0-1.387-.204-1.914-.611-.527-.411-.929-1.006-1.208-1.785-.278-.782-.417-1.727-.417-2.834 0-1.1.139-2.04.417-2.819.282-.782.686-1.379 1.213-1.79.531-.414 1.167-.621 1.909-.621.743 0 1.378.207 1.905.621.53.411.934 1.008 1.213 1.79.281.78.422 1.719.422 2.82 0 1.106-.139 2.05-.417 2.833-.279.779-.681 1.374-1.208 1.785-.527.407-1.165.611-1.915.611Zm0-1.094c.743 0 1.32-.358 1.731-1.073.411-.716.616-1.737.616-3.063 0-.881-.094-1.632-.283-2.252-.186-.62-.454-1.092-.806-1.417a1.777 1.777 0 0 0-1.258-.487c-.735 0-1.31.363-1.725 1.089-.414.722-.621 1.745-.621 3.067 0 .882.093 1.63.278 2.247.186.617.453 1.086.801 1.407.351.322.774.482 1.267.482Z"/><path stroke="#fff" stroke-dasharray="5 5" stroke-width="1.5" d="M-49.836 213.333C-2.645 190.871 112.51 156.58 195.6 199.114s141.78 17.722 160.739 0"/><path fill="url(#b)" fill-opacity=".09" d="M44.8 117.237c-19.025-1.426-55.07 24.796-55.07 24.796V255.5H370.5V142.033s-14.477-23.789-36.346-18.724c-13.423 3.109-18.468 15.65-31.905 18.724-25.458 5.826-31.373-31.847-57.318-28.845-24.186 2.8-28.833 37.208-53.18 36.942-28.553-.312-26.647-51.415-55.193-52.123-30.087-.746-26.972 59.658-56.728 55.159-20.5-3.098-14.355-34.38-35.03-35.929Z"/><path stroke="#FF3C00" stroke-width="2" d="M-10.27 142.033s34.045-26.222 53.07-24.796c20.675 1.549 17.53 32.831 38.03 35.929 29.756 4.499 23.641-55.905 53.728-55.16 28.546.709 27.64 51.812 56.193 52.124 24.347.266 27.994-34.142 52.18-36.942 25.945-3.002 32.86 34.671 58.318 28.845 13.437-3.074 19.481-15.615 32.905-18.724 21.869-5.065 36.346 18.724 36.346 18.724"/><path stroke="url(#c)" stroke-width="1.5" d="M134.75 43v224"/><rect width="12" height="12" x="129" y="91" fill="#fff" rx="6"/><rect width="6" height="6" x="132" y="94" fill="#FF3C00" rx="3"/></g><defs><linearGradient id="b" x1="180.115" x2="180.115" y1="98" y2="255.5" gradientUnits="userSpaceOnUse"><stop stop-color="#FF3C00"/><stop offset=".9" stop-color="#fff"/></linearGradient><linearGradient id="c" x1="133.5" x2="133.5" y1="43" y2="267" gradientUnits="userSpaceOnUse"><stop stop-color="#FF3C00"/><stop offset="1" stop-color="#fff"/></linearGradient><clipPath id="a"><path fill="#fff" d="M0 0h363v309H0z"/></clipPath></defs></svg>