<svg xmlns="http://www.w3.org/2000/svg" width="131" height="26" fill="none"><g fill="#5B37FF" clip-path="url(#a)"><path d="M11.401 1.354h14.03l-10.314 15.29H1.086L11.4 1.354Z"/><path d="m12.011 18.06-3.995 5.922h14.696l10.315-15.29H22.18l-6.32 9.368h-3.849Z"/></g><path fill="#0A0A0A" d="m56.025 4.875-.275.075-2.321-.3h-2.396v12.106l.2 3.744h-3.52l.225-3.744V4.65h-2.396l-2.322.3-.274-.075.474-3.095h12.106l.499 3.095Zm7.555.474c1.065 0 1.872.117 2.421.35l-.499 2.645-.325.225c-.216-.15-.524-.266-.923-.35-.4-.1-.849-.15-1.348-.15-1.131 0-2.03.475-2.696 1.424v7.263l.2 3.744h-3.444l.224-3.744V9.143l-.224-3.619h2.745l.425 1.622c.432-.599.94-1.048 1.522-1.347.6-.3 1.24-.45 1.922-.45Zm6.174-1.622c-.55 0-1.024-.158-1.423-.474a1.514 1.514 0 0 1-.574-1.223c0-.5.191-.907.574-1.223.4-.317.873-.475 1.422-.475.566 0 1.04.158 1.423.475.4.316.6.723.6 1.223 0 .499-.2.906-.6 1.223-.383.316-.857.474-1.422.474ZM68.23 16.756V9.143l-.2-3.619h3.445l-.225 3.62v7.612l.225 3.744H68.03l.2-3.744ZM86.765 5.524l-1.273 3.62-3.22 11.356h-4.418l-3.17-11.357-1.297-3.619h3.843l.65 3.62 2.196 8.96 2.171-8.96.7-3.62h3.818Zm7.584 15.275c-2.23 0-3.844-.657-4.843-1.971-.981-1.315-1.472-3.262-1.472-5.841 0-2.53.524-4.468 1.572-5.816 1.049-1.364 2.63-2.046 4.743-2.046 2.03 0 3.536.524 4.517 1.572.999 1.048 1.581 2.712 1.748 4.992l-.674 2.521h-8.736c.05.915.2 1.63.449 2.147.25.515.632.89 1.148 1.123.533.233 1.257.35 2.172.35 1.081 0 2.038-.109 2.87-.325.849-.216 1.481-.5 1.897-.849l.424.225-.674 2.646a5.508 5.508 0 0 1-2.121.973c-.782.2-1.789.3-3.02.3Zm3.17-8.96c-.017-1.298-.267-2.247-.75-2.846-.482-.599-1.256-.898-2.32-.898-1.132 0-1.947.283-2.447.849-.482.565-.757 1.53-.823 2.895h6.34Zm17.853 8.661h-3.944l-2.022-3.744-1.073-1.697-1.098 1.697-1.947 3.744h-3.969l2.646-3.744 2.371-3.744-2.321-3.869-2.496-3.619h3.968l1.823 3.62 1.023 1.721.998-1.722 1.822-3.619h3.969l-2.446 3.62-2.321 3.868 2.371 3.744 2.646 3.744Zm1.299-4.168c0-.965.225-1.83.674-2.596a4.785 4.785 0 0 1 1.822-1.822 4.89 4.89 0 0 1 2.521-.674c.765 0 1.481.066 2.146.2.666.133 1.207.316 1.623.549V10.59c0-.815-.266-1.431-.799-1.847-.516-.416-1.281-.624-2.296-.624-.999 0-1.889.175-2.671.524-.782.35-1.381.849-1.797 1.498l-.275-.05.4-3.27c.549-.516 1.248-.915 2.096-1.198.866-.3 1.764-.45 2.696-.45 1.747 0 3.128.425 4.143 1.274 1.015.848 1.523 2.021 1.523 3.519v6.814l.2 3.719h-3.145l-.075-1.448c-.316.533-.857.974-1.623 1.323-.765.35-1.58.524-2.446.524-1.464 0-2.62-.407-3.469-1.223-.832-.815-1.248-1.93-1.248-3.344Zm3.12-.225c0 .732.166 1.273.499 1.622.333.333.882.5 1.647.5.633 0 1.282-.125 1.947-.375.666-.266 1.19-.607 1.573-1.023v-2.222c-.4-.232-.915-.416-1.548-.549a8.1 8.1 0 0 0-1.922-.224c-.765 0-1.322.191-1.672.574-.349.366-.524.932-.524 1.697Z"/><defs><clipPath id="a"><path fill="#fff" d="M.418.022h33.277v25.956H.418z"/></clipPath></defs></svg>