<svg xmlns="http://www.w3.org/2000/svg" width="125" height="24" fill="none"><path fill="#000" d="M13.214 19.267c.021-2.203-.537-3.994-1.247-4.001-.71-.007-1.304 1.773-1.326 3.976-.021 2.203.537 3.994 1.248 4 .71.008 1.303-1.772 1.325-3.975Zm-4.121-.501c1.21-1.841 1.708-3.65 1.114-4.04-.594-.39-2.055.787-3.264 2.628-1.21 1.842-1.708 3.65-1.115 4.04.594.39 2.056-.786 3.265-2.628Zm-3.2-2.642c2.012-.895 3.41-2.147 3.121-2.796-.288-.65-2.154-.45-4.167.446-2.013.895-3.41 2.147-3.122 2.796.289.65 2.155.45 4.168-.446Zm2.879-4.616c.109-.702-1.569-1.543-3.746-1.878-2.177-.335-4.03-.038-4.138.664-.108.703 1.57 1.544 3.746 1.879 2.178.335 4.03.037 4.138-.665Zm.786-1.673c.47-.532-.486-2.147-2.137-3.605-1.65-1.46-3.37-2.21-3.84-1.678-.47.532.486 2.147 2.137 3.605 1.65 1.46 3.37 2.21 3.84 1.678Zm1.554-.978c.683-.193.751-2.068.151-4.188-.6-2.12-1.64-3.681-2.323-3.488-.684.194-.752 2.069-.152 4.189s1.64 3.68 2.324 3.487Zm4.228-3.421c.642-2.108.611-3.984-.068-4.19-.68-.208-1.75 1.333-2.392 3.44-.642 2.108-.611 3.984.069 4.191.68.207 1.75-1.334 2.392-3.441Zm3.02 2.848c1.68-1.427 2.668-3.022 2.208-3.563-.46-.542-2.194.176-3.873 1.602-1.68 1.426-2.667 3.021-2.207 3.563.46.541 2.194-.176 3.873-1.602Zm1.002 4.029c2.184-.292 3.878-1.1 3.783-1.804-.094-.704-1.94-1.038-4.124-.746-2.183.292-3.877 1.1-3.783 1.804.094.704 1.94 1.038 4.124.746Zm2.813 4.459c.302-.643-1.07-1.923-3.066-2.857-1.994-.935-3.856-1.172-4.157-.528-.302.643 1.07 1.922 3.066 2.857 1.994.935 3.856 1.171 4.157.528Zm-4.196 4.746c.601-.378.138-2.196-1.034-4.061-1.173-1.865-2.611-3.07-3.213-2.692-.601.378-.138 2.196 1.034 4.061 1.173 1.865 2.611 3.07 3.213 2.692ZM30.2 20V2.82h11.777v2.907h-8.309v4.066h7.172v2.906h-7.172V20h-3.469Zm14.624 0V2.82h3.293V20h-3.293Zm14.871 0v-1.863a4.784 4.784 0 0 1-1.793 1.57 4.975 4.975 0 0 1-2.332.574c-.836 0-1.586-.183-2.25-.55a3.251 3.251 0 0 1-1.441-1.547c-.297-.665-.445-1.582-.445-2.754V7.555h3.293v5.718c0 1.75.058 2.825.175 3.223.125.39.348.703.668.938.32.226.727.34 1.22.34.562 0 1.066-.153 1.51-.458.446-.312.75-.695.915-1.148.164-.461.246-1.582.246-3.363v-5.25h3.293V20h-3.059Zm4.899 0 4.488-6.41-4.3-6.035H68.8l2.203 3.422 2.32-3.422h3.867l-4.218 5.894L77.578 20h-4.043l-2.531-3.855L68.449 20h-3.855Zm23.32-4.008 2.18.27c-.344 1.273-.98 2.261-1.91 2.965-.93.703-2.118 1.054-3.563 1.054-1.82 0-3.265-.558-4.336-1.675-1.062-1.126-1.594-2.7-1.594-4.723 0-2.094.54-3.719 1.618-4.875 1.078-1.156 2.476-1.735 4.195-1.735 1.664 0 3.023.567 4.078 1.7 1.055 1.132 1.582 2.726 1.582 4.78 0 .126-.004.313-.012.563h-9.28c.077 1.368.464 2.414 1.16 3.141.695.727 1.562 1.09 2.6 1.09.774 0 1.434-.203 1.981-.61.547-.406.98-1.054 1.301-1.945Zm-6.926-3.41h6.95c-.094-1.047-.36-1.832-.797-2.355-.672-.813-1.543-1.22-2.614-1.22-.968 0-1.785.325-2.449.973-.656.649-1.02 1.516-1.09 2.602ZM92.754 20V7.555h1.898v1.77c.914-1.368 2.235-2.052 3.961-2.052a5.1 5.1 0 0 1 2.063.41c.633.266 1.105.618 1.418 1.055.312.438.531.957.656 1.559.078.39.117 1.074.117 2.05V20h-2.109v-7.57c0-.86-.082-1.5-.246-1.922a1.989 1.989 0 0 0-.88-1.02c-.413-.258-.901-.386-1.464-.386-.899 0-1.676.285-2.332.855-.648.57-.973 1.652-.973 3.246V20h-2.11Zm17.965-1.887.304 1.864a7.818 7.818 0 0 1-1.593.187c-.766 0-1.36-.121-1.782-.363-.421-.242-.718-.559-.89-.95-.172-.398-.258-1.23-.258-2.495v-7.16h-1.547V7.554h1.547V4.473l2.098-1.266v4.348h2.121v1.64h-2.121v7.278c0 .601.035.988.105 1.16a.922.922 0 0 0 .363.41c.172.102.414.152.727.152.234 0 .543-.027.926-.082Zm10.195.352c-.781.664-1.535 1.133-2.262 1.406a6.468 6.468 0 0 1-2.32.41c-1.367 0-2.418-.332-3.152-.996-.735-.672-1.102-1.527-1.102-2.566 0-.61.137-1.164.41-1.664a3.516 3.516 0 0 1 1.09-1.22 5.202 5.202 0 0 1 1.524-.69c.414-.11 1.039-.215 1.875-.317 1.703-.203 2.957-.445 3.761-.726.008-.29.012-.473.012-.551 0-.86-.199-1.465-.598-1.817-.539-.476-1.34-.714-2.402-.714-.992 0-1.727.175-2.203.527-.469.344-.817.957-1.043 1.84l-2.063-.282c.188-.882.497-1.593.926-2.132.43-.547 1.051-.965 1.863-1.254.813-.297 1.754-.446 2.825-.446 1.062 0 1.925.125 2.59.375.664.25 1.152.567 1.464.95.313.375.532.851.657 1.43.07.359.105 1.007.105 1.945v2.812c0 1.961.043 3.203.129 3.727.094.515.273 1.011.539 1.488h-2.203c-.219-.438-.359-.95-.422-1.535Zm-.176-4.711c-.765.312-1.914.578-3.445.797-.867.125-1.481.265-1.84.422a1.821 1.821 0 0 0-1.125 1.687c0 .563.211 1.031.633 1.406.43.375 1.055.563 1.875.563.812 0 1.535-.176 2.168-.527.633-.36 1.098-.848 1.394-1.465.227-.477.34-1.18.34-2.11v-.773Z"/></svg>