<svg xmlns="http://www.w3.org/2000/svg" width="95" height="22" fill="none"><g clip-path="url(#a)"><path fill="#36C334" d="M16.521 2.422a2.11 2.11 0 0 1 1.536-.675h7.436c4.835 0 7.256 6.208 3.838 9.84l-7.448 7.909c-.342.363-.927.106-.927-.408v-6.966l.861-.914c.684-.726.2-1.968-.768-1.968H10.102l6.42-6.818Z"/><path fill="#9FEF9D" d="M14.535 18.94a2.11 2.11 0 0 1-1.536.675H5.563c-4.835 0-7.256-6.209-3.837-9.84l7.447-7.909c.342-.363.927-.106.927.408V9.24l-.861.914c-.684.726-.2 1.968.768 1.968h10.948l-6.42 6.817Z"/></g><path fill="#0A0A0A" d="M43.472 18.089 38.35 3.714h2.433L44.91 15.46h-.554l4.148-11.746h2.433l-5.134 14.375h-2.33Zm12.477.205c-1.218 0-2.238-.246-3.06-.74a4.863 4.863 0 0 1-1.848-1.95 5.867 5.867 0 0 1-.616-2.68c0-.938.192-1.8.575-2.588a4.638 4.638 0 0 1 1.694-1.9c.746-.478 1.65-.718 2.71-.718.932 0 1.726.188 2.383.565a3.743 3.743 0 0 1 1.5 1.56c.348.658.523 1.41.523 2.26 0 .191-.014.393-.041.605a7.31 7.31 0 0 1-.093.637h-6.88c.097.746.305 1.338.627 1.776.322.438.722.757 1.201.955.48.192.996.288 1.551.288.548 0 1.075-.065 1.581-.195.514-.137.99-.322 1.428-.555l.174 1.9c-.39.192-.873.37-1.448.534-.575.164-1.228.246-1.96.246Zm-3.05-6.51h4.57c0-.37-.072-.715-.216-1.037a1.703 1.703 0 0 0-.667-.79c-.301-.206-.698-.308-1.191-.308-.72 0-1.28.195-1.684.585-.397.39-.668.907-.811 1.55Zm11.31 6.51c-.624 0-1.13-.12-1.52-.36a2.152 2.152 0 0 1-.843-.944 3.126 3.126 0 0 1-.266-1.294V2.686h2.3V14.65c0 .555.034.958.102 1.212.069.246.199.404.39.472.199.062.493.092.883.092l-.246 1.87h-.8Zm5.873 0c-.643 0-1.163-.126-1.56-.38a2.31 2.31 0 0 1-.873-.965 2.911 2.911 0 0 1-.277-1.242V9.75H65.81l.205-1.858h1.356v-2.34l2.29-.237v2.578h2.402V9.75H69.66v4.878c0 .568.035.978.103 1.232a.638.638 0 0 0 .472.472c.247.062.644.092 1.191.092h.617l-.195 1.87h-1.767Zm3.62-.205V7.893h2.075l.113 1.304c.356-.418.77-.774 1.242-1.068a2.84 2.84 0 0 1 1.53-.442c.165 0 .319.017.462.052l-.184 2.33a1.935 1.935 0 0 0-.39-.061 3.826 3.826 0 0 0-.401-.02c-.466 0-.893.106-1.284.318-.39.212-.664.458-.821.739v7.044h-2.341Zm6.68 0V7.893h2.289v10.196h-2.29Zm0-12.003V3.714h2.289v2.372h-2.29Zm3.736 12.003 3.44-5.093-3.41-5.103h2.68l2.116 3.347 1.94-3.347h2.722l-3.378 5.052 3.419 5.144h-2.69l-2.116-3.337-2.033 3.337h-2.69Z"/><defs><clipPath id="a"><path fill="#fff" d="M.125 1.696H31.25v17.786H.125z"/></clipPath></defs></svg>