<svg xmlns="http://www.w3.org/2000/svg" width="24" height="23" fill="none"><g clip-path="url(#a)"><path fill="#0A0A0A" d="M22.34 9.147a4.054 4.054 0 0 1-.826-.737c.017-.393.096-.782.234-1.15.258-.875.58-1.963-.04-2.815-.625-.858-1.765-.887-2.682-.91a3.93 3.93 0 0 1-1.145-.124 3.89 3.89 0 0 1-.465-1.04C17.11 1.5 16.729.416 15.709.084c-.99-.321-1.879.29-2.662.828A3.73 3.73 0 0 1 12 1.5a3.724 3.724 0 0 1-1.047-.588C10.17.373 9.281-.236 8.291.084c-1.02.332-1.4 1.415-1.707 2.287a3.966 3.966 0 0 1-.46 1.037c-.375.1-.762.142-1.15.126-.916.024-2.057.052-2.682.91-.62.853-.298 1.941-.04 2.816.136.367.216.752.237 1.143-.24.286-.519.537-.83.744C.92 9.711 0 10.414 0 11.5c0 1.086.92 1.789 1.66 2.352.308.207.586.455.827.738a3.789 3.789 0 0 1-.235 1.15c-.258.875-.58 1.963.04 2.815.625.858 1.766.887 2.682.91a3.93 3.93 0 0 1 1.145.123c.205.323.362.673.465 1.041.306.871.687 1.955 1.707 2.287.181.059.37.089.56.089.768 0 1.47-.482 2.102-.916a3.77 3.77 0 0 1 1.047-.59c.379.14.732.338 1.047.59.784.537 1.672 1.146 2.662.827 1.02-.332 1.4-1.416 1.707-2.287a3.98 3.98 0 0 1 .46-1.037c.375-.1.763-.142 1.15-.126.917-.024 2.058-.053 2.682-.91.62-.853.298-1.941.04-2.816a3.896 3.896 0 0 1-.237-1.143c.24-.286.52-.537.83-.745C23.08 13.29 24 12.586 24 11.5c0-1.086-.92-1.789-1.66-2.353Zm-5.883.56-5 5a1 1 0 0 1-1.414 0l-2.5-2.5a1 1 0 1 1 1.414-1.414l1.793 1.793 4.293-4.293a1 1 0 1 1 1.414 1.414Z"/></g><defs><clipPath id="a"><path fill="#fff" d="M0-.005h24v23.01H0z"/></clipPath></defs></svg>