<svg xmlns="http://www.w3.org/2000/svg" width="113" height="27" fill="none"><path fill="#0A0A0A" d="m6.844 1 5.683 4.856c.338.288.533.711.533 1.157v3.66L7.375 5.816a1.522 1.522 0 0 1-.532-1.157V1Zm0 22 5.683-4.856c.338-.289.533-.712.533-1.157v-3.66l-5.684 4.856a1.522 1.522 0 0 0-.532 1.157V23ZM.063 6.121l5.606 4.763a1.5 1.5 0 0 0 .972.358h4.521L5.57 6.48a1.5 1.5 0 0 0-.973-.359H.062Zm0 11.759 5.572-4.76a1.5 1.5 0 0 1 .974-.361h4.566L5.57 17.522a1.5 1.5 0 0 1-.972.358H.062ZM20.786 1l-5.684 4.856a1.522 1.522 0 0 0-.532 1.157v3.66l5.684-4.856c.337-.289.532-.712.532-1.157V1Zm0 22-5.684-4.856a1.522 1.522 0 0 1-.532-1.157v-3.66l5.684 4.856c.337.288.532.711.532 1.157V23Zm6.778-16.879-5.606 4.763a1.5 1.5 0 0 1-.972.358h-4.521l5.593-4.762a1.5 1.5 0 0 1 .973-.359h4.533Zm.002 11.759-5.572-4.76a1.501 1.501 0 0 0-.975-.361h-4.566l5.607 4.763a1.5 1.5 0 0 0 .971.358h4.535Z"/><path fill="#000" d="M35.222 21.024v-2.4L43.454 6.96v-.48h-8.232V4.464h11.016v2.448l-8.232 11.616v.48h8.232v2.016H35.222Zm17.767.216c-1.232 0-2.208-.224-2.928-.672-.704-.464-1.216-1.152-1.536-2.064-.32-.912-.48-2.056-.48-3.432 0-1.504.208-2.72.624-3.648.432-.928 1.032-1.608 1.8-2.04.768-.432 1.688-.648 2.76-.648 1.648 0 2.888.448 3.72 1.344.848.88 1.272 2.304 1.272 4.272l-.12 1.512h-7.776c.016 1.152.232 2.024.648 2.616.416.576 1.168.864 2.256.864.464 0 .968-.008 1.512-.024l1.656-.096a58.52 58.52 0 0 0 1.392-.096l.048 1.68c-.4.064-.88.128-1.44.192-.56.08-1.144.136-1.752.168a20.57 20.57 0 0 1-1.656.072Zm-2.664-7.032h5.664c0-1.36-.224-2.312-.672-2.856-.432-.544-1.128-.816-2.088-.816-.624 0-1.152.12-1.584.36-.432.24-.76.632-.984 1.176-.224.528-.336 1.24-.336 2.136ZM60.807 21V8.976h2.232v.84c.256-.16.584-.32.984-.48.4-.16.824-.296 1.272-.408.448-.128.88-.192 1.296-.192.832 0 1.512.112 2.04.336.544.208.968.552 1.272 1.032.304.464.52 1.072.648 1.824s.192 1.664.192 2.736V21h-2.256v-6.216c0-.992-.056-1.784-.168-2.376-.112-.592-.336-1.016-.672-1.272-.336-.272-.84-.408-1.512-.408-.368 0-.752.04-1.152.12a8.001 8.001 0 0 0-1.944.672V21h-2.232Zm16.97.264c-.848 0-1.528-.128-2.04-.384-.496-.256-.856-.696-1.08-1.32-.208-.64-.312-1.536-.312-2.688v-6h-1.632V8.976h1.632V5.448h2.208v3.528h3.576v1.896h-3.576v5.376c0 .784.032 1.4.096 1.848.08.432.232.736.456.912.224.176.576.264 1.056.264h.6l.744-.048c.256-.032.48-.056.672-.072l.12 1.824c-.24.048-.52.088-.84.12-.304.048-.608.088-.912.12-.304.032-.56.048-.768.048ZM82.206 21V8.976h2.232v1.56a9.9 9.9 0 0 1 1.104-.672c.448-.24.936-.464 1.464-.672a7.968 7.968 0 0 1 1.608-.48v2.232a12.84 12.84 0 0 0-1.584.408 16.03 16.03 0 0 0-1.488.576 12.32 12.32 0 0 0-1.104.528V21h-2.232Zm11.007 5.232L94.749 21h-1.992L89.493 8.976h2.28l2.712 10.104h.768l2.736-10.104h2.232l-4.728 17.256h-2.28ZM101.234 21l3.576-6-3.576-6.024h2.424l2.664 4.536 2.664-4.536h2.376l-3.576 5.976L111.362 21h-2.424l-2.688-4.464L103.61 21h-2.376Z"/></svg>