<svg xmlns="http://www.w3.org/2000/svg" width="120" height="24" fill="none"><g clip-path="url(#a)"><path fill="#0A0A0A" d="M20.605 22.04A6.534 6.534 0 0 0 27 15.506a6.538 6.538 0 0 0-1.913-4.621L14.21 0v6.765c0 1.131.45 2.216 1.25 3.016l2.547 2.55.007.007 4.272 4.275a.355.355 0 0 1-.502.502l-1.473-1.473H6.69l-1.473 1.473a.355.355 0 1 1-.502-.502l4.272-4.275.007-.007 2.548-2.55c.8-.8 1.248-1.885 1.248-3.016V0L1.914 10.884A6.538 6.538 0 0 0 0 15.505a6.534 6.534 0 0 0 6.395 6.536h14.21Z"/></g><path fill="#0A0A0A" d="M35.433 19V2.8h8.652c1.712 0 2.804.384 3.276 1.152.472.76.708 1.62.708 2.58 0 1-.216 1.864-.648 2.592-.432.72-1.076 1.1-1.932 1.14.896.048 1.604.448 2.124 1.2.52.744.78 1.708.78 2.892 0 1.336-.236 2.444-.708 3.324-.472.88-1.548 1.32-3.228 1.32h-9.024Zm2.94-2.016h5.34c.664 0 1.12-.244 1.368-.732.256-.496.384-1.228.384-2.196 0-.904-.152-1.604-.456-2.1-.304-.496-.872-.744-1.704-.744h-4.932v5.772Zm0-7.584h4.752c.752 0 1.268-.224 1.548-.672.288-.456.432-1.048.432-1.776 0-.68-.12-1.208-.36-1.584-.232-.376-.692-.564-1.38-.564h-4.992V9.4Zm21.209 2.112c0-1.904-.224-3.184-.672-3.84-.448-.664-1.1-.996-1.956-.996-.976 0-1.748.332-2.316.996-.56.656-.84 1.4-.84 2.232l-1.116-.744c0-1.256.484-2.32 1.452-3.192.976-.88 2.272-1.32 3.888-1.32 1.696 0 2.864.552 3.504 1.656.64 1.096.96 2.832.96 5.208h-2.904ZM50.918 19V4.78h2.256l.636 2.664V19h-2.892Zm14.469 0V4.768h2.904V19h-2.904Zm0-18.228h2.904v2.34h-2.904V.772ZM71.55 19V.16h2.892V19H71.55Zm11.761.108c-2.264 0-3.92-.604-4.968-1.812-1.048-1.208-1.572-3.024-1.572-5.448 0-2.432.524-4.244 1.572-5.436 1.048-1.192 2.704-1.788 4.968-1.788 2.272 0 3.928.596 4.968 1.788 1.048 1.192 1.572 3.004 1.572 5.436 0 2.424-.524 4.24-1.572 5.448-1.04 1.208-2.696 1.812-4.968 1.812Zm0-1.992c1.064 0 1.936-.36 2.616-1.08.68-.728 1.02-2.12 1.02-4.176 0-2.064-.34-3.452-1.02-4.164-.68-.72-1.552-1.08-2.616-1.08-1.056 0-1.928.36-2.616 1.08-.68.712-1.02 2.1-1.02 4.164 0 2.056.34 3.448 1.02 4.176.688.72 1.56 1.08 2.616 1.08Zm17.451-5.604c0-1.904-.224-3.184-.672-3.84-.448-.664-1.1-.996-1.956-.996-.976 0-1.748.332-2.316.996-.56.656-.84 1.4-.84 2.232l-1.116-.744c0-1.256.484-2.32 1.452-3.192.976-.88 2.272-1.32 3.888-1.32 1.696 0 2.864.552 3.504 1.656.64 1.096.96 2.832.96 5.208h-2.904ZM92.098 19V4.78h2.256l.636 2.664V19h-2.892Zm18.626.132a9.893 9.893 0 0 1-2.1-.204c-.616-.136-1.148-.364-1.596-.684-.44-.328-.78-.772-1.02-1.332-.232-.56-.348-1.264-.348-2.112 0-.808.112-1.48.336-2.016.232-.544.564-.976.996-1.296.432-.32.96-.548 1.584-.684a9.423 9.423 0 0 1 2.112-.216h4.596v-.732c0-.776-.132-1.4-.396-1.872a2.333 2.333 0 0 0-1.14-1.044c-.488-.216-1.072-.324-1.752-.324-.576 0-1.096.096-1.56.288-.456.192-.84.508-1.152.948-.312.44-.524 1.024-.636 1.752l-2.844-.768c.136-.768.388-1.42.756-1.956a4.53 4.53 0 0 1 1.38-1.296 6.267 6.267 0 0 1 1.848-.72c.688-.152 1.42-.228 2.196-.228 1.336 0 2.464.18 3.384.54.928.36 1.632.932 2.112 1.716.48.776.72 1.812.72 3.108v9h-2.424l-.24-1.752c-.112.208-.3.42-.564.636-.264.216-.6.42-1.008.612a6.797 6.797 0 0 1-1.428.468 8.896 8.896 0 0 1-1.812.168Zm.636-1.884c.68 0 1.284-.08 1.812-.24.528-.168.968-.38 1.32-.636.36-.264.612-.536.756-.816v-3.36h-3.876c-.392 0-.76.036-1.104.108a2.205 2.205 0 0 0-.876.36c-.248.176-.444.432-.588.768-.136.328-.204.752-.204 1.272s.068.944.204 1.272c.144.328.34.584.588.768.256.184.552.316.888.396.336.072.696.108 1.08.108Z"/><defs><clipPath id="a"><path fill="#fff" d="M0 0h27v22.041H0z"/></clipPath></defs></svg>