<svg xmlns="http://www.w3.org/2000/svg" width="16" height="16" fill="none"><g fill="#fff" clip-path="url(#a)"><path d="M11 0H5a5 5 0 0 0-5 5v6a5 5 0 0 0 5 5h6a5 5 0 0 0 5-5V5a5 5 0 0 0-5-5Zm3.5 11c0 1.93-1.57 3.5-3.5 3.5H5c-1.93 0-3.5-1.57-3.5-3.5V5c0-1.93 1.57-3.5 3.5-3.5h6c1.93 0 3.5 1.57 3.5 3.5v6Z"/><path d="M8 4a4 4 0 1 0 0 8 4 4 0 0 0 0-8Zm0 6.5A2.503 2.503 0 0 1 5.5 8c0-1.379 1.122-2.5 2.5-2.5s2.5 1.121 2.5 2.5c0 1.378-1.122 2.5-2.5 2.5Zm4.299-6.266a.533.533 0 1 0 0-1.066.533.533 0 0 0 0 1.066Z"/></g><defs><clipPath id="a"><path fill="#fff" d="M0 0h16v16H0z"/></clipPath></defs></svg>