<svg xmlns="http://www.w3.org/2000/svg" width="110" height="24" fill="none"><g fill="#0A0A0A" clip-path="url(#a)"><path d="M19.659 2.349a2.466 2.466 0 0 1 1.795-.79h8.69c5.65 0 8.48 7.256 4.485 11.5l-8.704 9.243c-.4.424-1.083.124-1.083-.476v-8.142l1.006-1.068c.799-.848.233-2.3-.897-2.3H12.156L19.66 2.35Z"/><path d="M17.34 21.652a2.466 2.466 0 0 1-1.795.789h-8.69c-5.65 0-8.48-7.256-4.484-11.5L11.074 1.7c.4-.425 1.083-.124 1.083.476v8.141l-1.006 1.068c-.799.849-.233 2.3.897 2.3h12.795l-7.503 7.968Z"/></g><path fill="#000" d="M50.563 21 44.575 4.2h2.844l4.824 13.728h-.648L56.443 4.2h2.844l-6 16.8h-2.724Zm14.581.24c-1.424 0-2.616-.288-3.576-.864-.952-.576-1.672-1.336-2.16-2.28-.48-.952-.72-1.996-.72-3.132 0-1.096.224-2.104.672-3.024a5.42 5.42 0 0 1 1.98-2.22c.872-.56 1.928-.84 3.168-.84 1.088 0 2.016.22 2.784.66a4.373 4.373 0 0 1 1.752 1.824c.408.768.612 1.648.612 2.64 0 .224-.016.46-.048.708-.024.24-.06.488-.108.744h-8.04c.112.872.356 1.564.732 2.076s.844.884 1.404 1.116c.56.224 1.164.336 1.812.336.64 0 1.256-.076 1.848-.228.6-.16 1.156-.376 1.668-.648l.204 2.22c-.456.224-1.02.432-1.692.624-.672.192-1.436.288-2.292.288Zm-3.564-7.608h5.34c0-.432-.084-.836-.252-1.212a1.99 1.99 0 0 0-.78-.924c-.352-.24-.816-.36-1.392-.36-.84 0-1.496.228-1.968.684-.464.456-.78 1.06-.948 1.812Zm13.216 7.608c-.728 0-1.32-.14-1.776-.42a2.516 2.516 0 0 1-.984-1.104 3.654 3.654 0 0 1-.312-1.512V3h2.688v13.98c0 .648.04 1.12.12 1.416.08.288.232.472.456.552.232.072.576.108 1.032.108l-.288 2.184h-.936Zm6.865 0c-.752 0-1.36-.148-1.824-.444a2.7 2.7 0 0 1-1.02-1.128 3.402 3.402 0 0 1-.324-1.452v-6.96H76.67l.24-2.172h1.584V6.348l2.676-.276v3.012h2.808v2.172H81.17v5.7c0 .664.04 1.144.12 1.44.08.288.264.472.552.552.288.072.752.108 1.392.108h.72l-.228 2.184h-2.064Zm4.232-.24V9.084h2.424l.132 1.524c.416-.488.9-.904 1.452-1.248a3.32 3.32 0 0 1 1.788-.516c.192 0 .372.02.54.06l-.216 2.724a2.253 2.253 0 0 0-.456-.072 4.469 4.469 0 0 0-.468-.024c-.544 0-1.044.124-1.5.372-.456.248-.776.536-.96.864V21h-2.736Zm7.804 0V9.084h2.676V21h-2.676Zm0-14.028V4.2h2.676v2.772h-2.676ZM98.064 21l4.021-5.952-3.984-5.964h3.132l2.472 3.912 2.268-3.912h3.18l-3.948 5.904L109.201 21h-3.144l-2.472-3.9-2.376 3.9h-3.145Z"/><defs><clipPath id="a"><path fill="#fff" d="M.5 1.5h36v21H.5z"/></clipPath></defs></svg>