<svg xmlns="http://www.w3.org/2000/svg" width="110" height="32" fill="none"><g clip-path="url(#a)"><path fill="#FF3C00" d="M27.703 30.816c4.765-.097 8.597-3.995 8.597-8.787a8.79 8.79 0 0 0-2.572-6.213L19.105 1.184v9.095c0 1.52.604 2.98 1.679 4.055l3.425 3.428.01.009 5.743 5.747a.478.478 0 0 1-.675.676l-1.98-1.98H8.993l-1.98 1.98a.477.477 0 1 1-.675-.675l5.743-5.748.01-.01 3.425-3.427a5.737 5.737 0 0 0 1.679-4.055V1.184L2.572 15.816A8.79 8.79 0 0 0 0 22.03c0 4.792 3.832 8.69 8.597 8.787h19.106Z"/></g><path fill="#0A0A0A" d="M43.574 8.261V4.727h18.568v3.534h-7.194V28h-4.181V8.261h-7.194ZM63.227 28V10.546h3.989v2.909h.181c.319-1.008.864-1.784 1.637-2.33.78-.553 1.67-.83 2.67-.83.228 0 .481.012.762.034.287.016.526.042.716.08v3.784c-.175-.06-.451-.114-.83-.159a7.637 7.637 0 0 0-1.08-.08c-.75 0-1.424.163-2.022.49a3.576 3.576 0 0 0-1.398 1.329c-.341.568-.511 1.223-.511 1.966V28h-4.114Zm12.187 0V10.546h4.114V28h-4.114Zm2.069-19.932A2.4 2.4 0 0 1 75.8 7.42c-.47-.439-.705-.965-.705-1.58 0-.62.235-1.147.705-1.579a2.378 2.378 0 0 1 1.682-.659c.659 0 1.22.22 1.681.66.47.431.705.958.705 1.579 0 .614-.235 1.14-.705 1.58-.462.431-1.022.647-1.681.647Zm9.889-3.34V28h-4.114V4.727h4.114ZM98.716 28.34c-1.705 0-3.182-.375-4.432-1.125-1.25-.75-2.22-1.8-2.91-3.148-.681-1.348-1.022-2.924-1.022-4.727 0-1.803.34-3.383 1.023-4.739.689-1.356 1.659-2.409 2.909-3.159 1.25-.75 2.727-1.125 4.432-1.125 1.704 0 3.181.375 4.431 1.125s2.216 1.803 2.898 3.16c.689 1.355 1.034 2.935 1.034 4.738 0 1.803-.345 3.379-1.034 4.727-.682 1.349-1.648 2.398-2.898 3.148-1.25.75-2.727 1.125-4.431 1.125Zm.022-3.296c.924 0 1.697-.253 2.318-.76.622-.516 1.084-1.206 1.387-2.07.31-.863.466-1.825.466-2.886 0-1.068-.156-2.034-.466-2.897-.303-.871-.765-1.565-1.387-2.08-.621-.515-1.394-.773-2.318-.773-.947 0-1.735.258-2.363.773-.622.515-1.088 1.209-1.398 2.08-.303.864-.455 1.83-.455 2.898 0 1.06.152 2.022.455 2.886.31.863.776 1.553 1.398 2.068.628.508 1.416.762 2.363.762Z"/><defs><clipPath id="a"><path fill="#fff" d="M0 1.184h36.3v29.633H0z"/></clipPath></defs></svg>