<svg xmlns="http://www.w3.org/2000/svg" width="32" height="32" fill="none"><path fill="#fff" d="m13.293 7.437.803 2.23a8.835 8.835 0 0 0 5.316 5.316l2.23.803a.229.229 0 0 1 0 .43l-2.23.803a8.835 8.835 0 0 0-5.316 5.316l-.803 2.23a.229.229 0 0 1-.43 0l-.803-2.23a8.835 8.835 0 0 0-5.316-5.316l-2.23-.803a.229.229 0 0 1 0-.43l2.23-.803a8.835 8.835 0 0 0 5.316-5.316l.803-2.23a.228.228 0 0 1 .43 0Zm10.038-5.36.407 1.13a4.477 4.477 0 0 0 2.692 2.691l1.13.407a.116.116 0 0 1 0 .218l-1.13.407a4.477 4.477 0 0 0-2.692 2.692l-.407 1.13a.116.116 0 0 1-.218 0l-.407-1.13a4.477 4.477 0 0 0-2.692-2.692l-1.129-.407a.116.116 0 0 1 0-.218l1.13-.407a4.477 4.477 0 0 0 2.691-2.692l.407-1.129a.116.116 0 0 1 .218 0Zm0 19.173.407 1.13a4.477 4.477 0 0 0 2.692 2.691l1.13.407a.116.116 0 0 1 0 .218l-1.13.407a4.477 4.477 0 0 0-2.692 2.692l-.407 1.13a.116.116 0 0 1-.218 0l-.407-1.13a4.477 4.477 0 0 0-2.692-2.692l-1.129-.407a.116.116 0 0 1 0-.218l1.13-.407a4.477 4.477 0 0 0 2.691-2.692l.407-1.129c.037-.102.182-.102.218 0Z"/></svg>