<svg xmlns="http://www.w3.org/2000/svg" width="16" height="17" fill="none"><g clip-path="url(#a)"><path fill="#F3AB0F" d="M15.838 6.694a.823.823 0 0 0-.71-.567L10.65 5.72 8.88 1.575a.825.825 0 0 0-1.517 0L5.59 5.72l-4.48.407A.825.825 0 0 0 .643 7.57l3.385 2.969-.998 4.397a.824.824 0 0 0 1.227.891l3.863-2.309 3.862 2.31a.825.825 0 0 0 1.227-.891l-.998-4.398 3.385-2.969a.825.825 0 0 0 .242-.876Z"/></g><defs><clipPath id="a"><path fill="#fff" d="M.361.741h15.517v15.517H.361z"/></clipPath></defs></svg>