<svg xmlns="http://www.w3.org/2000/svg" width="18" height="19" fill="none"><path fill="#5B5B5B" d="M17.858 7.452a1.12 1.12 0 0 0-.984-.577H6.214A1.661 1.661 0 0 0 4.62 8.071l-2.11 7.234a1.834 1.834 0 0 1-1.76 1.32h13.405a1.834 1.834 0 0 0 1.76-1.32l2.026-6.945a1.177 1.177 0 0 0-.083-.908Z"/><path fill="#5B5B5B" d="M1.789 15.095 3.9 7.861a2.419 2.419 0 0 1 2.314-1.736h9.536V5.75a1.5 1.5 0 0 0-1.5-1.5H8.533a.752.752 0 0 1-.583-.277l-.737-.907a1.873 1.873 0 0 0-1.453-.691H1.5a1.5 1.5 0 0 0-1.5 1.5v11.25a.75.75 0 0 0 .75.75 1.085 1.085 0 0 0 1.039-.78Z"/></svg>