<svg xmlns="http://www.w3.org/2000/svg" width="82" height="21" fill="none"><g clip-path="url(#a)"><path fill="#F44B4B" fill-rule="evenodd" d="M0 9.116v7.225h2.352c.247 0 .492.046.72.137.228.09.435.224.61.392.175.167.313.366.408.586.095.219.143.454.143.69v2.259h5.645l7.055-6.774V6.407H14.58a1.95 1.95 0 0 1-.72-.138 1.889 1.889 0 0 1-.61-.391 1.804 1.804 0 0 1-.408-.586A1.744 1.744 0 0 1 12.7 4.6V2.343H7.055L0 9.116Zm7.996 6.773H4.704v-4.967l4.233-4.064h3.292v4.967L7.996 15.89Z" clip-rule="evenodd"/></g><path fill="#0A0A0A" d="M21.846 19.773V2.9h3.538c.894 0 1.556.16 1.984.48.428.312.706.788.834 1.428.134.632.201 1.431.201 2.396 0 1.042-.105 1.87-.316 2.483-.211.613-.62 1.01-1.227 1.188a1.3 1.3 0 0 1 .757.394c.205.21.364.54.48.987.114.447.194 1.048.24 1.802.05.748.076 1.69.076 2.828v.47c0 .204.003.428.01.67l.019.72c.012.236.028.447.047.632.02.18.045.31.077.393h-1.975c-.025-.057-.047-.185-.067-.383a14.77 14.77 0 0 1-.048-.786 47.398 47.398 0 0 1-.028-1.16 99.46 99.46 0 0 1-.01-1.515v-1.84c0-.64-.029-1.125-.086-1.457-.051-.339-.18-.572-.384-.7-.198-.134-.517-.214-.958-.24l-1.18-.067v8.149h-1.984Zm1.985-9.606h1.265c.364 0 .642-.07.834-.21.198-.148.332-.435.403-.863.07-.435.105-1.084.105-1.946v-.115c0-.716-.035-1.256-.105-1.62-.064-.371-.192-.62-.384-.748s-.482-.192-.872-.192H23.83v5.694Zm9.998 9.778c-.69 0-1.246-.118-1.668-.355a2.377 2.377 0 0 1-.95-1.025c-.216-.441-.363-.969-.44-1.582-.07-.62-.105-1.304-.105-2.052v-5.08c0-.678.047-1.298.143-1.86.096-.569.262-1.058.499-1.467.236-.415.565-.734.987-.958.422-.23.959-.345 1.61-.345.659 0 1.19.115 1.592.345.403.23.706.556.91.978.212.415.352.913.422 1.495.07.575.106 1.208.106 1.898v2.713H32.64v2.866c0 .908.06 1.601.182 2.08.128.473.47.71 1.026.71.364 0 .623-.112.777-.336.16-.23.255-.55.287-.958.038-.416.058-.905.058-1.467v-1.16h1.927V15c0 .747-.032 1.425-.096 2.032-.058.607-.186 1.128-.384 1.562-.198.435-.505.77-.92 1.007-.41.23-.965.345-1.668.345Zm-1.198-8.627h2.339V9.487c0-.576-.02-1.058-.058-1.448-.038-.396-.13-.693-.278-.891-.147-.205-.39-.307-.728-.307-.377 0-.659.115-.844.345-.179.23-.297.55-.355.959a11.34 11.34 0 0 0-.076 1.409v1.764Zm7.85 8.455-2.08-14.38h1.783l1.122 8.158.393 3.403h.067l.336-3.413.997-8.148h1.792l-2.1 14.38h-2.31Zm9.27.172c-.677 0-1.227-.115-1.648-.345a2.448 2.448 0 0 1-.978-.997c-.224-.435-.377-.952-.46-1.553a15.074 15.074 0 0 1-.125-2.032v-5.09c0-.902.086-1.707.259-2.416.172-.71.489-1.269.949-1.678.467-.409 1.134-.613 2.004-.613.651 0 1.185.118 1.6.354.416.23.739.56.969.988.23.422.386.92.47 1.495.089.569.134 1.192.134 1.87v5.09c0 .735-.039 1.402-.116 2.003-.076.601-.226 1.122-.45 1.563-.217.434-.537.77-.959 1.006-.415.237-.965.355-1.648.355Zm0-1.64c.346 0 .601-.114.767-.344.173-.23.288-.55.346-.959.057-.415.086-.895.086-1.438v-6.03c0-.536-.029-1.003-.087-1.4-.057-.402-.172-.715-.345-.939-.172-.223-.428-.335-.767-.335-.357 0-.626.112-.805.335-.179.224-.297.537-.354.94-.052.396-.077.863-.077 1.4v6.03c0 .542.025 1.022.077 1.437.057.41.175.729.354.959.18.23.448.345.806.345Zm5.733 1.468V5.393h1.965V6.89c.128-.454.384-.847.767-1.18.39-.332.882-.498 1.476-.498.473 0 .885.115 1.237.345.351.23.617.601.795 1.112a2.87 2.87 0 0 1 .978-1.054c.416-.269.901-.403 1.457-.403.76 0 1.34.272 1.735.815.397.537.595 1.336.595 2.396v11.35h-1.965V8.366c0-.543-.106-.92-.317-1.131-.21-.217-.489-.326-.834-.326-.492 0-.85.112-1.073.335-.218.218-.326.61-.326 1.18v11.35h-1.975V8.355c0-.51-.099-.878-.297-1.102-.198-.23-.476-.345-.834-.345-.467 0-.821.15-1.064.45-.237.3-.355.707-.355 1.218v11.197h-1.965Zm13.766 0V5.393h1.974v14.38H69.25Zm0-15.703V2.268h1.974V4.07H69.25Zm6.95 15.827c-.87 0-1.496-.335-1.88-1.006-.383-.678-.578-1.614-.584-2.81v-1.399c0-.633.109-1.157.326-1.572a2.91 2.91 0 0 1 .92-1.054 7.195 7.195 0 0 1 1.4-.758c.536-.23 1.124-.473 1.764-.728V9.458c0-.614-.02-1.109-.058-1.486-.038-.384-.137-.665-.297-.844-.153-.179-.403-.268-.748-.268-.339 0-.594.09-.767.268-.166.18-.275.46-.326.844-.05.383-.076.882-.076 1.495v.499h-1.956v-.412c0-.614.038-1.183.115-1.707a4 4 0 0 1 .441-1.38c.217-.39.534-.693.95-.91.42-.224.974-.336 1.657-.336.652 0 1.176.105 1.573.316.402.205.709.508.92.91.217.403.364.902.44 1.496.078.588.116 1.269.116 2.042v9.788h-1.975v-1.247c-.057.192-.17.396-.335.614-.166.21-.384.39-.652.537-.269.147-.591.22-.968.22Zm.556-1.591c.345 0 .642-.109.891-.326.25-.224.415-.444.499-.662v-5.473c-.493.217-.898.415-1.218.594a2.95 2.95 0 0 0-.738.546 1.631 1.631 0 0 0-.364.69c-.07.27-.106.608-.106 1.017v1.332c0 .812.07 1.397.211 1.755.14.351.416.527.825.527Z"/><defs><clipPath id="a"><path fill="#fff" d="M0 2.343h16.933v18.062H0z"/></clipPath></defs></svg>