<svg xmlns="http://www.w3.org/2000/svg" width="356" height="189" fill="none"><path fill="#fff" d="M0 0h355.159v188.159H0z"/><path fill="#0A0A0A" d="M25.438 56.16V43.067h4.666c1.019 0 1.863.186 2.532.556.669.371 1.17.878 1.502 1.522.332.639.498 1.36.498 2.16 0 .806-.168 1.53-.505 2.174-.332.639-.835 1.146-1.508 1.52-.67.371-1.51.557-2.525.557h-3.209v-1.675h3.03c.643 0 1.165-.11 1.566-.332.4-.226.695-.533.882-.92a3 3 0 0 0 .281-1.324 2.97 2.97 0 0 0-.28-1.317 2.017 2.017 0 0 0-.89-.9c-.4-.218-.928-.327-1.585-.327h-2.48V56.16h-1.975Zm11.36 0v-9.82h1.848v1.56h.102c.179-.529.494-.944.946-1.247.456-.307.972-.46 1.547-.46a8.082 8.082 0 0 1 .812.045v1.828a3.432 3.432 0 0 0-.41-.07 3.906 3.906 0 0 0-.587-.045c-.452 0-.855.096-1.209.287a2.137 2.137 0 0 0-1.137 1.924v5.996h-1.912Zm10.693.197c-.92 0-1.724-.21-2.41-.633a4.267 4.267 0 0 1-1.598-1.77c-.38-.759-.569-1.645-.569-2.66 0-1.018.19-1.908.569-2.671.38-.763.912-1.355 1.598-1.777.686-.422 1.49-.633 2.41-.633.92 0 1.724.211 2.41.633.686.422 1.218 1.014 1.598 1.777.379.763.569 1.653.569 2.672 0 1.014-.19 1.9-.57 2.659a4.268 4.268 0 0 1-1.597 1.77c-.687.422-1.49.633-2.41.633Zm.006-1.604c.597 0 1.091-.158 1.483-.473.392-.315.682-.735.87-1.26a5.008 5.008 0 0 0 .287-1.732 4.98 4.98 0 0 0-.288-1.725c-.187-.529-.477-.953-.869-1.272-.392-.32-.886-.48-1.483-.48-.6 0-1.1.16-1.496.48-.392.32-.683.743-.875 1.272a5.09 5.09 0 0 0-.282 1.725c0 .631.094 1.209.282 1.733.192.524.483.944.875 1.259.397.315.895.473 1.496.473Zm10.38 1.598c-.793 0-1.5-.203-2.123-.607-.618-.41-1.104-.991-1.457-1.745-.35-.759-.524-1.669-.524-2.73 0-1.06.176-1.968.53-2.723.358-.754.848-1.331 1.47-1.732.622-.4 1.328-.6 2.116-.6.61 0 1.1.101 1.47.306.375.2.665.435.87.703.208.269.37.505.485.71h.115v-4.865h1.912V56.16h-1.867v-1.527h-.16a5.05 5.05 0 0 1-.498.715c-.213.269-.507.503-.882.703-.375.2-.861.3-1.458.3Zm.421-1.63c.55 0 1.014-.145 1.394-.435.383-.294.673-.7.869-1.22.2-.52.3-1.126.3-1.816 0-.682-.098-1.278-.294-1.79-.196-.511-.483-.91-.863-1.195-.379-.285-.848-.428-1.406-.428-.575 0-1.055.149-1.438.447-.384.299-.673.705-.87 1.221-.191.516-.287 1.097-.287 1.745 0 .656.098 1.246.294 1.77.196.525.486.94.87 1.247.387.303.864.454 1.431.454Zm13.39-2.634v-5.746h1.918v9.818h-1.88v-1.7h-.102c-.226.524-.588.96-1.087 1.31-.494.345-1.11.518-1.847.518-.63 0-1.189-.139-1.675-.416-.481-.28-.86-.696-1.138-1.246-.272-.55-.409-1.23-.409-2.039v-6.245h1.912v6.015c0 .669.185 1.202.556 1.598.37.396.852.594 1.444.594.358 0 .714-.09 1.068-.268.358-.18.654-.45.888-.812.239-.362.356-.822.352-1.38Zm8.621 4.27c-.95 0-1.768-.215-2.454-.645a4.274 4.274 0 0 1-1.573-1.796c-.366-.763-.55-1.637-.55-2.621 0-.997.188-1.877.563-2.64.375-.767.903-1.366 1.585-1.796.682-.43 1.485-.646 2.41-.646.746 0 1.41.139 1.994.416a3.577 3.577 0 0 1 1.413 1.15c.362.494.577 1.072.645 1.732h-1.86a2.229 2.229 0 0 0-.703-1.189c-.362-.332-.848-.498-1.457-.498-.533 0-1 .14-1.4.422-.396.277-.705.673-.927 1.189-.221.511-.332 1.116-.332 1.815 0 .716.109 1.334.326 1.854.217.52.524.922.92 1.208.4.285.872.428 1.413.428.362 0 .69-.066.984-.198a2.01 2.01 0 0 0 .748-.582c.205-.251.347-.554.428-.907h1.86a3.614 3.614 0 0 1-.62 1.7c-.345.498-.807.89-1.387 1.176-.575.286-1.25.428-2.026.428Zm10.66-10.016v1.534h-5.362v-1.534h5.362Zm-3.924-2.352h1.911v9.287c0 .371.055.65.166.838a.87.87 0 0 0 .428.377c.18.064.373.096.582.096.153 0 .288-.01.403-.032l.268-.051.345 1.579c-.11.042-.268.085-.473.127-.204.047-.46.073-.767.077a3.366 3.366 0 0 1-1.406-.268 2.413 2.413 0 0 1-1.055-.87c-.268-.392-.402-.884-.402-1.476v-9.684Zm6.039 12.17v-9.818h1.91v9.818h-1.91Zm.965-11.333c-.333 0-.618-.11-.857-.332a1.08 1.08 0 0 1-.351-.806c0-.315.117-.584.351-.805.239-.226.524-.339.857-.339.332 0 .616.113.85.339.239.221.358.49.358.805 0 .311-.12.58-.358.806a1.193 1.193 0 0 1-.85.332Zm11.916 1.515-3.56 9.818h-2.046l-3.566-9.818h2.051l2.487 7.555h.102l2.48-7.555h2.052Zm1.796 9.818v-9.818h1.912v9.818h-1.912Zm.966-11.333c-.333 0-.618-.11-.857-.332a1.083 1.083 0 0 1-.352-.806c0-.315.118-.584.352-.805.239-.226.524-.339.857-.339.332 0 .615.113.85.339.238.221.358.49.358.805 0 .311-.12.58-.358.806a1.194 1.194 0 0 1-.85.332Zm8.1 1.515v1.534h-5.363v-1.534h5.363Zm-3.925-2.352h1.911v9.287c0 .371.056.65.167.838.11.183.253.309.428.377.179.064.373.096.582.096.153 0 .287-.01.402-.032l.269-.051.345 1.579a3.241 3.241 0 0 1-.473.127c-.205.047-.46.073-.767.077a3.362 3.362 0 0 1-1.406-.268 2.408 2.408 0 0 1-1.055-.87c-.269-.392-.403-.884-.403-1.476v-9.684Zm7.247 15.852c-.285 0-.545-.023-.78-.07a2.46 2.46 0 0 1-.524-.14l.46-1.567c.35.094.661.134.934.121.272-.012.513-.115.722-.306.213-.192.401-.505.562-.94l.237-.652-3.592-9.946h2.045l2.487 7.62h.102l2.486-7.62h2.052l-4.046 11.128a4.423 4.423 0 0 1-.716 1.298c-.29.358-.635.627-1.035.805-.401.18-.865.269-1.394.269ZM24.793 75.769v-1.7h10.131v1.7H30.84v11.39h-1.97V75.77h-4.077ZM39.72 87.357c-.92 0-1.723-.21-2.41-.632a4.268 4.268 0 0 1-1.598-1.771c-.379-.759-.569-1.645-.569-2.66 0-1.018.19-1.908.57-2.671.379-.763.911-1.355 1.597-1.777.687-.422 1.49-.633 2.41-.633.92 0 1.724.211 2.41.633a4.257 4.257 0 0 1 1.598 1.777c.38.763.569 1.653.569 2.672 0 1.014-.19 1.9-.569 2.659a4.267 4.267 0 0 1-1.598 1.77c-.686.422-1.49.633-2.41.633Zm.007-1.604c.596 0 1.09-.158 1.483-.473.392-.315.681-.735.869-1.26a5.008 5.008 0 0 0 .288-1.732 4.98 4.98 0 0 0-.288-1.725c-.188-.529-.477-.953-.87-1.272-.392-.32-.886-.48-1.482-.48-.601 0-1.1.16-1.496.48-.392.32-.684.743-.876 1.272a5.09 5.09 0 0 0-.281 1.725c0 .631.094 1.209.281 1.733.192.524.484.944.876 1.259.396.315.895.473 1.496.473Zm10.379 1.598c-.793 0-1.5-.203-2.122-.607-.618-.41-1.104-.991-1.458-1.745-.35-.759-.524-1.669-.524-2.73 0-1.06.177-1.969.53-2.723.358-.754.849-1.331 1.47-1.732.623-.4 1.328-.6 2.117-.6.609 0 1.099.101 1.47.306.375.2.664.435.869.703.209.269.37.505.486.71h.115v-4.865h1.911V87.16h-1.866v-1.528h-.16a5.066 5.066 0 0 1-.499.716c-.213.269-.507.503-.882.704-.375.2-.86.3-1.457.3Zm.422-1.63c.55 0 1.014-.145 1.393-.435.384-.294.673-.7.87-1.22.2-.52.3-1.126.3-1.816 0-.682-.098-1.278-.294-1.79-.196-.511-.484-.91-.863-1.195-.38-.285-.848-.428-1.406-.428-.576 0-1.055.149-1.439.447-.383.298-.673.705-.869 1.221-.192.516-.288 1.097-.288 1.745 0 .656.098 1.246.294 1.77.197.525.486.94.87 1.247.388.303.865.454 1.432.454Zm10.027 1.655a4.007 4.007 0 0 1-1.687-.345 2.842 2.842 0 0 1-1.196-1.016c-.29-.443-.434-.987-.434-1.63 0-.554.106-1.01.32-1.368.212-.358.5-.641.862-.85a4.505 4.505 0 0 1 1.215-.473 11.85 11.85 0 0 1 1.368-.243l1.431-.166c.367-.047.633-.122.8-.224.166-.102.249-.268.249-.498v-.045c0-.558-.158-.99-.473-1.298-.311-.307-.776-.46-1.394-.46-.643 0-1.15.143-1.521.428-.367.281-.62.595-.76.94l-1.797-.41c.213-.596.524-1.077.933-1.444.414-.37.889-.639 1.426-.805a5.567 5.567 0 0 1 1.694-.256c.392 0 .807.047 1.246.14.443.09.857.257 1.24.5.388.242.705.59.953 1.041.247.448.37 1.03.37 1.745v6.52h-1.866v-1.342h-.077a2.72 2.72 0 0 1-.556.729 2.954 2.954 0 0 1-.952.594c-.388.158-.853.236-1.394.236Zm.416-1.534c.528 0 .98-.104 1.355-.313.379-.209.667-.481.863-.818.2-.34.3-.705.3-1.093v-1.266c-.068.069-.2.132-.396.192a6.166 6.166 0 0 1-.659.147c-.247.038-.488.075-.722.109l-.588.076a4.74 4.74 0 0 0-1.016.237c-.303.11-.546.27-.729.48-.179.204-.269.477-.269.818 0 .473.175.83.525 1.073.35.24.794.358 1.336.358Zm7.831 4.999c-.285 0-.545-.023-.78-.07a2.454 2.454 0 0 1-.523-.14l.46-1.567c.35.094.66.134.933.122.273-.013.513-.116.722-.307.213-.192.4-.505.563-.94l.236-.652-3.592-9.946h2.045l2.487 7.62h.102l2.487-7.62h2.052L71.948 88.47a4.44 4.44 0 0 1-.716 1.297c-.29.358-.635.627-1.035.806-.4.178-.865.268-1.394.268Z"/><path fill="#F7F7F5" d="M316.559 94.08c0 30.639-24.839 55.478-55.479 55.478s-55.478-24.839-55.478-55.479 24.838-55.478 55.478-55.478 55.479 24.838 55.479 55.478Zm-99.908 0c0 24.537 19.891 44.429 44.429 44.429 24.538 0 44.43-19.892 44.43-44.43s-19.892-44.43-44.43-44.43-44.429 19.892-44.429 44.43Z"/><path fill="#FF3C00" d="M212.834 107.031c-2.947.791-4.721 3.835-3.641 6.688a55.487 55.487 0 0 0 37.769 34.013 55.477 55.477 0 0 0 67.52-68.685 55.48 55.48 0 0 0-34.654-37.182c-2.872-1.03-5.884.794-6.625 3.754-.74 2.96 1.077 5.928 3.922 7.03a44.429 44.429 0 1 1-57.196 58.183c-1.15-2.826-4.149-4.592-7.095-3.801Z"/><path fill="#0A0A0A" d="M240.43 98.598V94.7h-3.848v-1.797h3.848v-3.886h1.875v3.886h3.857V94.7h-3.857v3.897h-1.875Zm7.009 2.402v-1.719l5.235-4.668a24.08 24.08 0 0 0 1.387-1.347c.371-.404.647-.801.83-1.192a3 3 0 0 0 .283-1.318c0-.827-.248-1.481-.742-1.963-.495-.488-1.169-.733-2.022-.733-.924 0-1.644.287-2.158.86s-.772 1.35-.772 2.334h-2.021c0-.996.202-1.872.605-2.627a4.456 4.456 0 0 1 1.719-1.768c.742-.43 1.615-.644 2.617-.644.938 0 1.768.189 2.491.566a4.195 4.195 0 0 1 1.699 1.563c.417.664.625 1.435.625 2.314a4.55 4.55 0 0 1-.801 2.627c-.534.775-1.325 1.631-2.373 2.569l-3.652 3.28v.02h6.904V101h-9.854Zm15.77.234c-.879 0-1.66-.166-2.344-.498a4.296 4.296 0 0 1-1.64-1.406c-.411-.599-.661-1.289-.752-2.07h2.08c.123.657.41 1.181.859 1.572.449.39 1.026.586 1.729.586.794 0 1.448-.225 1.963-.674.52-.45.908-1.068 1.162-1.855.254-.788.38-1.696.38-2.725h-.019c-.339.56-.824.993-1.455 1.299-.625.3-1.325.45-2.1.45-.898 0-1.699-.21-2.402-.626a4.497 4.497 0 0 1-1.66-1.709c-.404-.722-.606-1.546-.606-2.47 0-.97.215-1.824.645-2.56a4.516 4.516 0 0 1 1.777-1.718c.755-.41 1.628-.615 2.617-.615 1.68 0 2.979.609 3.897 1.826.924 1.218 1.387 2.933 1.387 5.147 0 1.62-.202 3.033-.606 4.238-.404 1.204-1.016 2.142-1.836 2.812-.814.664-1.839.996-3.076.996Zm.186-7.119c.553 0 1.054-.133 1.503-.4a2.982 2.982 0 0 0 1.084-1.084 3.03 3.03 0 0 0 .401-1.543c0-.573-.13-1.087-.391-1.543a2.908 2.908 0 0 0-1.064-1.094 2.77 2.77 0 0 0-1.485-.41 2.82 2.82 0 0 0-1.494.41 2.987 2.987 0 0 0-1.074 1.094 3.13 3.13 0 0 0-.391 1.562c0 .573.127 1.088.381 1.543.261.45.609.808 1.045 1.075.443.26.938.39 1.485.39Zm18.728 7.119c-.631 0-1.182-.146-1.65-.439a3.058 3.058 0 0 1-1.104-1.211c-.26-.514-.39-1.1-.39-1.758v-.293c0-.657.13-1.243.39-1.758a3.055 3.055 0 0 1 1.104-1.21c.468-.293 1.019-.44 1.65-.44.625 0 1.172.147 1.641.44a2.98 2.98 0 0 1 1.093 1.21c.267.515.401 1.1.401 1.758v.293c0 .658-.134 1.244-.401 1.758-.26.514-.625.918-1.093 1.211-.469.293-1.016.439-1.641.439Zm-8.682-7.91c-.625 0-1.175-.146-1.65-.44a2.989 2.989 0 0 1-1.094-1.21c-.26-.515-.39-1.1-.39-1.758v-.293c0-.657.13-1.243.39-1.758a2.99 2.99 0 0 1 1.094-1.21c.475-.294 1.025-.44 1.65-.44.632 0 1.182.146 1.651.44a2.99 2.99 0 0 1 1.094 1.21c.26.515.39 1.1.39 1.758v.293c0 .658-.13 1.243-.39 1.758a2.989 2.989 0 0 1-1.094 1.21c-.469.294-1.019.44-1.651.44ZM271.83 101l10-14.55h1.846l-10 14.55h-1.846Zm10.293-1.21c.443 0 .794-.17 1.055-.509.26-.345.39-.83.39-1.455v-.293c0-.625-.13-1.11-.39-1.455a1.254 1.254 0 0 0-1.055-.517c-.449 0-.807.172-1.074.517-.261.345-.391.83-.391 1.455v.293c0 .625.13 1.11.391 1.455.267.339.625.508 1.074.508Zm-8.682-7.901c.45 0 .804-.173 1.065-.518.26-.345.39-.83.39-1.455v-.293c0-.625-.13-1.11-.39-1.455-.261-.345-.615-.518-1.065-.518a1.28 1.28 0 0 0-1.064.518c-.26.345-.391.83-.391 1.455v.293c0 .625.131 1.11.391 1.455a1.28 1.28 0 0 0 1.064.518Z"/><rect width="84" height="32" x="24" y="117.999" fill="#FF3C00" rx="16"/><path fill="#fff" d="M40.119 128.817h1.864l3.241 7.915h.12l3.241-7.915h1.865v10.182h-1.462v-7.368h-.094l-3.003 7.353h-1.213l-3.003-7.358h-.095v7.373h-1.46v-10.182Zm14.667 10.351c-.484 0-.921-.089-1.313-.268a2.214 2.214 0 0 1-.93-.791c-.224-.345-.337-.767-.337-1.268 0-.431.083-.785.248-1.064.166-.278.39-.498.672-.661a3.51 3.51 0 0 1 .944-.368 9.34 9.34 0 0 1 1.064-.189l1.114-.129c.285-.036.492-.094.621-.174.13-.079.194-.209.194-.388v-.034c0-.435-.123-.771-.368-1.01-.242-.238-.603-.358-1.084-.358-.5 0-.895.111-1.183.333-.285.219-.482.463-.591.731l-1.398-.318c.166-.464.408-.838.726-1.123a2.933 2.933 0 0 1 1.109-.627 4.345 4.345 0 0 1 1.317-.199c.305 0 .628.037.97.11.345.069.666.198.964.387.302.189.549.459.741.811.192.348.288.8.288 1.357v5.071h-1.451v-1.044h-.06c-.096.192-.24.381-.432.567a2.33 2.33 0 0 1-.741.462c-.302.123-.663.184-1.084.184Zm.323-1.193c.411 0 .762-.081 1.054-.244a1.7 1.7 0 0 0 .671-.636 1.65 1.65 0 0 0 .234-.85v-.985c-.053.053-.156.103-.308.15a4.79 4.79 0 0 1-.512.114c-.192.03-.38.058-.562.084l-.458.06a3.73 3.73 0 0 0-.79.184 1.35 1.35 0 0 0-.567.373c-.139.159-.209.371-.209.636 0 .368.136.647.408.835.272.186.618.279 1.04.279Zm6.912-3.51v4.534h-1.487v-7.636h1.427v1.243h.095c.175-.405.45-.73.825-.975.378-.245.853-.368 1.427-.368.52 0 .976.11 1.367.328a2.2 2.2 0 0 1 .91.965c.215.427.323.956.323 1.586v4.857h-1.487v-4.678c0-.554-.144-.986-.432-1.298-.288-.315-.684-.472-1.188-.472-.345 0-.651.074-.92.224a1.604 1.604 0 0 0-.631.656c-.153.285-.229.63-.229 1.034Zm9.103 4.703c-.484 0-.921-.089-1.313-.268a2.215 2.215 0 0 1-.93-.791c-.225-.345-.337-.767-.337-1.268 0-.431.082-.785.248-1.064.166-.278.39-.498.671-.661a3.53 3.53 0 0 1 .945-.368 9.343 9.343 0 0 1 1.064-.189l1.114-.129c.285-.036.492-.094.621-.174.13-.079.194-.209.194-.388v-.034c0-.435-.123-.771-.368-1.01-.242-.238-.603-.358-1.084-.358-.5 0-.895.111-1.183.333-.285.219-.482.463-.592.731l-1.397-.318c.166-.464.408-.838.726-1.123a2.933 2.933 0 0 1 1.109-.627 4.345 4.345 0 0 1 1.317-.199c.305 0 .628.037.97.11.344.069.666.198.964.387.302.189.549.459.741.811.192.348.288.8.288 1.357v5.071h-1.451v-1.044h-.06a2.11 2.11 0 0 1-.433.567 2.314 2.314 0 0 1-.74.462c-.302.123-.663.184-1.084.184Zm.323-1.193c.411 0 .762-.081 1.054-.244.295-.162.519-.374.671-.636a1.65 1.65 0 0 0 .234-.85v-.985c-.053.053-.156.103-.308.15a4.79 4.79 0 0 1-.512.114c-.193.03-.38.058-.562.084l-.458.06a3.73 3.73 0 0 0-.79.184 1.35 1.35 0 0 0-.567.373c-.139.159-.209.371-.209.636 0 .368.136.647.408.835.272.186.618.279 1.04.279Zm8.627 4.047c-.606 0-1.129-.08-1.566-.239-.434-.159-.789-.369-1.064-.631a2.659 2.659 0 0 1-.616-.86l1.277-.527c.09.145.21.3.358.462.153.166.358.307.617.423.262.116.598.174 1.009.174.563 0 1.03-.138 1.397-.413.368-.272.552-.706.552-1.303v-1.501h-.095c-.09.162-.218.343-.387.542a2.097 2.097 0 0 1-.686.517c-.292.146-.672.219-1.139.219a3.179 3.179 0 0 1-1.63-.423c-.481-.285-.862-.704-1.144-1.258-.279-.557-.418-1.241-.418-2.053 0-.812.138-1.508.413-2.088.278-.58.66-1.024 1.143-1.332a2.97 2.97 0 0 1 1.646-.468c.474 0 .857.08 1.148.239.292.156.52.338.681.547.166.209.294.392.383.552h.11v-1.238h1.456v7.805c0 .656-.152 1.195-.457 1.616a2.688 2.688 0 0 1-1.238.934c-.517.203-1.1.304-1.75.304Zm-.015-4.37c.428 0 .789-.1 1.084-.299.298-.202.524-.49.676-.865.156-.377.234-.83.234-1.357 0-.514-.076-.966-.229-1.357a2.019 2.019 0 0 0-.671-.915c-.295-.222-.66-.333-1.094-.333-.447 0-.82.116-1.118.348-.299.229-.524.54-.677.935a3.71 3.71 0 0 0-.223 1.322c0 .501.076.94.228 1.318.153.377.378.672.676.885.302.212.673.318 1.114.318Zm8.745 1.501c-.752 0-1.4-.161-1.944-.482a3.275 3.275 0 0 1-1.253-1.367c-.291-.59-.437-1.281-.437-2.073 0-.783.146-1.472.437-2.069a3.403 3.403 0 0 1 1.233-1.397c.53-.334 1.15-.502 1.86-.502.43 0 .848.071 1.253.214a3.04 3.04 0 0 1 1.088.671c.322.305.575.701.761 1.188.186.484.278 1.073.278 1.765v.527h-6.07v-1.113h4.614c0-.391-.08-.738-.239-1.039a1.8 1.8 0 0 0-.671-.721 1.873 1.873 0 0 0-1.004-.264c-.418 0-.782.103-1.094.308a2.078 2.078 0 0 0-.716.796 2.298 2.298 0 0 0-.249 1.059v.87c0 .51.09.944.269 1.302.182.358.436.632.76.821.325.185.705.278 1.14.278.28 0 .538-.04.77-.119a1.593 1.593 0 0 0 .99-.97l1.406.254a2.553 2.553 0 0 1-.607 1.089 2.95 2.95 0 0 1-1.088.721c-.434.169-.93.253-1.487.253Z"/></svg>