<svg xmlns="http://www.w3.org/2000/svg" width="122" height="24" fill="none"><g fill="#0A0A0A" clip-path="url(#a)"><path d="M10.155 1.231h12.973L13.591 15.37H.617l9.538-14.14Z"/><path d="m10.722 16.678-3.695 5.476h13.589l9.538-14.137h-10.03l-5.843 8.661h-3.56Z"/></g><path fill="#000" d="m44.221 21 .24-1.92V5.208h2.448V19.08l.24 1.92h-2.928ZM39.373 6.648V4.2h12.624v2.448l-1.44-.24h-9.744l-1.44.24ZM52.995 21l.24-1.92v-8.4l-.24-1.92h1.92l.384 1.416h.336v8.904L55.85 21h-2.856Zm1.896-7.608v-2.544l2.208-2.064a4.925 4.925 0 0 1 1.728-.312c.288 0 .576.024.864.072.304.048.608.136.912.264V10.8l-.432.24a2.907 2.907 0 0 0-.84-.24 5.823 5.823 0 0 0-.72-.048c-.848 0-1.584.224-2.208.672-.624.432-1.128 1.088-1.512 1.968Zm11.083-6.528c-.432 0-.8-.136-1.104-.408-.288-.272-.432-.648-.432-1.128 0-.48.144-.856.432-1.128a1.598 1.598 0 0 1 1.104-.408c.416 0 .768.136 1.056.408.304.272.456.648.456 1.128 0 .48-.152.856-.456 1.128a1.48 1.48 0 0 1-1.056.408ZM64.846 21l.24-1.92v-8.352h-2.568V8.76h5.208l-.24 1.92v8.4l.24 1.92h-2.88Zm9.999 0-4.44-12.24h2.76l.504 1.92 2.376 7.296.144 1.44h.168l.144-1.44 2.376-7.296.528-1.92h2.76L77.7 21h-2.856Zm9.028-6.12c0-1.584.256-2.84.768-3.768.528-.944 1.224-1.616 2.088-2.016a6.388 6.388 0 0 1 2.808-.624c1.152 0 2.112.224 2.88.672a4.225 4.225 0 0 1 1.728 1.896c.384.816.576 1.784.576 2.904 0 .336-.016.648-.048.936-.032.272-.072.56-.12.864h-9.24v-.528l2.16-1.296h4.872c0-.704-.08-1.312-.24-1.824-.144-.512-.424-.904-.84-1.176-.4-.288-.992-.432-1.776-.432s-1.408.16-1.872.48c-.464.32-.8.792-1.008 1.416-.192.624-.288 1.392-.288 2.304 0 .992.104 1.8.312 2.424.208.608.488 1.064.84 1.368.368.304.784.512 1.248.624.48.096.992.144 1.536.144.688 0 1.304-.064 1.848-.192.56-.128 1.08-.32 1.56-.576l.432.24v1.968c-.48.176-1.016.32-1.608.432-.592.112-1.272.168-2.04.168-.832 0-1.64-.096-2.424-.288a5.732 5.732 0 0 1-2.112-.936c-.624-.464-1.12-1.112-1.488-1.944-.368-.848-.552-1.928-.552-3.24ZM96.348 21l4.032-6.192-3.84-6.048h2.832l.912 1.728 1.656 2.616.192.864h.144l.216-.864 1.68-2.616.912-1.728h2.856l-3.912 6.048 4.08 6.192h-2.832l-.96-1.656-1.824-2.664-.216-.888h-.144l-.192.888-1.8 2.664L99.18 21h-2.832Zm21.799 0-.36-1.416v-6.24c0-.608-.08-1.12-.24-1.536-.144-.432-.464-.76-.96-.984-.48-.224-1.216-.336-2.208-.336-.576 0-1.112.056-1.608.168-.496.096-.992.28-1.488.552l-.408-.24V9.024a9.943 9.943 0 0 1 1.992-.432c.64-.08 1.216-.12 1.728-.12 1.456 0 2.584.184 3.384.552.816.368 1.384.92 1.704 1.656.336.72.504 1.608.504 2.664v5.736l.216 1.92h-2.256Zm-3.84.288c-.72 0-1.432-.112-2.136-.336a3.779 3.779 0 0 1-1.728-1.224c-.448-.576-.672-1.368-.672-2.376 0-.8.144-1.456.432-1.968a3.188 3.188 0 0 1 1.176-1.176 5.115 5.115 0 0 1 1.656-.6 10.049 10.049 0 0 1 2.832-.12c.336.016.664.056.984.12l1.536.936v1.272a4.591 4.591 0 0 0-1.392-.456 8.367 8.367 0 0 0-1.632-.144c-1.072 0-1.872.152-2.4.456-.528.288-.792.84-.792 1.656 0 .72.208 1.24.624 1.56.416.32 1.08.48 1.992.48 1.008 0 1.792-.16 2.352-.48.576-.32 1.016-.704 1.32-1.152l.36 1.008-2.4 2.28a9.127 9.127 0 0 1-2.112.264Z"/><defs><clipPath id="a"><path fill="#fff" d="M0 0h30.769v24H0z"/></clipPath></defs></svg>