<svg xmlns="http://www.w3.org/2000/svg" width="399" height="286" fill="none"><path fill="#fff" d="M0 0h399v286H0z"/><rect width="149" height="117" x="43" y="84" fill="#F7F7F5" rx="7.959"/><rect width="148.005" height="116.005" x="43.497" y="84.497" stroke="#fff" stroke-opacity=".06" stroke-width=".995" rx="7.462"/><path fill="#0A0A0A" d="M94.702 114.818V125H93.29l-5.175-7.467h-.095V125h-1.536v-10.182h1.422l5.18 7.477h.095v-7.477h1.52Zm5.413 10.336c-.753 0-1.4-.161-1.944-.482a3.275 3.275 0 0 1-1.253-1.367c-.292-.59-.438-1.281-.438-2.073 0-.783.146-1.472.438-2.069a3.402 3.402 0 0 1 1.233-1.397c.53-.334 1.15-.502 1.859-.502.431 0 .849.071 1.253.214.404.143.767.366 1.089.671.321.305.575.701.761 1.188.185.484.278 1.073.278 1.765v.527h-6.07v-1.113h4.613c0-.391-.079-.738-.238-1.039a1.801 1.801 0 0 0-.671-.721 1.876 1.876 0 0 0-1.005-.264c-.417 0-.782.103-1.093.308a2.077 2.077 0 0 0-.716.796 2.298 2.298 0 0 0-.249 1.059v.87c0 .51.09.944.269 1.302.182.358.435.632.76.821.325.185.704.278 1.139.278.281 0 .538-.04.77-.119.232-.083.433-.206.602-.368a1.6 1.6 0 0 0 .388-.602l1.407.254a2.554 2.554 0 0 1-.607 1.089 2.945 2.945 0 0 1-1.089.721c-.434.169-.929.253-1.486.253Zm6.567-.154-2.247-7.636h1.536l1.497 5.608h.074l1.502-5.608h1.536l1.491 5.583h.075l1.486-5.583h1.537L112.926 125h-1.516l-1.551-5.513h-.114L108.194 125h-1.512Zm13.22-8.859v-1.323h7.88v1.323h-3.177V125h-1.531v-8.859h-3.172Zm10.685 9.028a3.12 3.12 0 0 1-1.313-.268 2.21 2.21 0 0 1-.929-.791c-.226-.345-.338-.767-.338-1.268 0-.431.082-.785.248-1.064.166-.278.39-.498.671-.661a3.53 3.53 0 0 1 .945-.368 9.352 9.352 0 0 1 1.064-.189l1.113-.129c.286-.036.493-.094.622-.174.129-.079.194-.209.194-.388v-.034c0-.435-.123-.771-.368-1.01-.242-.238-.603-.358-1.084-.358-.5 0-.895.111-1.183.333-.285.219-.482.463-.592.731l-1.397-.318c.166-.464.408-.838.726-1.124a2.947 2.947 0 0 1 1.109-.626 4.313 4.313 0 0 1 1.317-.199c.305 0 .628.037.97.11.344.069.666.198.964.387.302.189.549.459.741.811.192.348.288.8.288 1.357V125h-1.451v-1.044h-.06a2.11 2.11 0 0 1-.433.567 2.314 2.314 0 0 1-.74.462c-.302.123-.663.184-1.084.184Zm.323-1.193c.411 0 .762-.081 1.054-.244.295-.162.519-.374.671-.636a1.65 1.65 0 0 0 .234-.85v-.985c-.053.053-.156.103-.308.15a4.81 4.81 0 0 1-.513.114c-.192.03-.379.058-.561.084l-.458.06a3.66 3.66 0 0 0-.79.184 1.35 1.35 0 0 0-.567.373c-.139.159-.209.371-.209.636 0 .368.136.647.408.835.272.186.618.279 1.039.279Zm11.148-4.748-1.348.239a1.6 1.6 0 0 0-.268-.493 1.34 1.34 0 0 0-.487-.382c-.206-.1-.463-.15-.771-.15-.421 0-.772.095-1.054.284-.282.185-.423.426-.423.721 0 .255.095.46.284.616.189.156.494.284.915.383l1.213.278c.702.163 1.226.413 1.571.751.344.338.517.777.517 1.318 0 .457-.133.865-.398 1.223-.262.354-.628.633-1.099.835-.467.202-1.009.303-1.625.303-.856 0-1.553-.182-2.094-.547-.54-.368-.871-.89-.994-1.566l1.437-.219c.089.375.273.658.552.851.278.189.641.283 1.089.283.487 0 .876-.101 1.168-.303.292-.206.437-.456.437-.751a.78.78 0 0 0-.268-.602c-.176-.162-.446-.285-.81-.367l-1.293-.284c-.713-.162-1.24-.421-1.581-.775-.338-.355-.507-.804-.507-1.348 0-.45.126-.845.378-1.183.252-.338.6-.602 1.044-.79.444-.193.953-.289 1.526-.289.825 0 1.475.179 1.949.537.474.355.787.83.94 1.427Zm3.15 3.182-.01-1.815h.259l3.042-3.231h1.78l-3.47 3.679h-.234l-1.367 1.367Zm-1.367 2.59v-10.182h1.487V125h-1.487Zm4.823 0-2.735-3.629 1.024-1.039 3.535 4.668h-1.824Z"/><rect width="37.143" height="37.143" x="99.428" y="140" fill="#FF3C00" rx="18.571"/><path stroke="#fff" stroke-linecap="round" stroke-linejoin="round" stroke-width="1.5" d="M119.333 158.333h-4m1.333 2.667h-1.333m5.333-5.334h-5.333m8 2v-2.133c0-1.12 0-1.68-.218-2.108a2.006 2.006 0 0 0-.874-.874c-.428-.218-.988-.218-2.108-.218h-4.267c-1.12 0-1.68 0-2.108.218a2.006 2.006 0 0 0-.874.874c-.218.428-.218.988-.218 2.108v6.933c0 1.12 0 1.68.218 2.108.192.377.498.683.874.874.428.218.988.218 2.108.218h2.467m3.666-.666s2-.954 2-2.384v-1.668l-1.458-.521a1.614 1.614 0 0 0-1.084 0l-1.458.521v1.668c0 1.43 2 2.384 2 2.384Z"/><rect width="149" height="117" x="208" y="84" fill="#F7F7F5" rx="7.959"/><rect width="148.005" height="116.005" x="208.497" y="84.497" stroke="#fff" stroke-opacity=".06" stroke-width=".995" rx="7.462"/><path fill="#0A0A0A" d="M239.241 125v-10.182h3.629c.792 0 1.448.144 1.969.433.52.288.909.682 1.168 1.183.259.497.388 1.057.388 1.68 0 .627-.131 1.19-.393 1.691-.258.497-.65.891-1.173 1.183-.521.288-1.175.432-1.964.432h-2.496v-1.302h2.357c.5 0 .906-.086 1.218-.259.311-.175.54-.414.686-.716.146-.301.219-.644.219-1.029a2.3 2.3 0 0 0-.219-1.024 1.57 1.57 0 0 0-.691-.701c-.312-.169-.723-.253-1.233-.253h-1.929V125h-1.536Zm12.031.154c-.752 0-1.4-.161-1.944-.482a3.278 3.278 0 0 1-1.253-1.367c-.291-.59-.437-1.281-.437-2.073 0-.783.146-1.472.437-2.069a3.403 3.403 0 0 1 1.233-1.397c.53-.334 1.15-.502 1.86-.502.43 0 .848.071 1.252.214a3.03 3.03 0 0 1 1.089.671c.322.305.575.701.761 1.188.185.484.278 1.073.278 1.765v.527h-6.07v-1.113h4.614c0-.391-.08-.738-.239-1.039a1.801 1.801 0 0 0-.671-.721 1.874 1.874 0 0 0-1.005-.264c-.417 0-.782.103-1.093.308a2.071 2.071 0 0 0-.716.796 2.294 2.294 0 0 0-.249 1.059v.87c0 .51.09.944.269 1.302.182.358.436.632.76.821.325.185.705.278 1.139.278.282 0 .538-.04.77-.119.232-.083.433-.206.602-.368a1.6 1.6 0 0 0 .388-.602l1.407.254a2.554 2.554 0 0 1-.607 1.089 2.945 2.945 0 0 1-1.089.721c-.434.169-.929.253-1.486.253Zm6.412-4.688V125h-1.486v-7.636h1.426v1.243h.095c.176-.405.451-.73.825-.975.378-.245.854-.368 1.427-.368.52 0 .976.11 1.367.328.391.216.695.537.91.965.215.427.323.956.323 1.586V125h-1.486v-4.678c0-.554-.145-.986-.433-1.298-.288-.315-.684-.472-1.188-.472-.345 0-.651.074-.92.224a1.605 1.605 0 0 0-.631.656c-.153.285-.229.63-.229 1.034Zm9.739 4.683a2.957 2.957 0 0 1-1.65-.472c-.481-.318-.859-.771-1.134-1.357-.271-.59-.407-1.298-.407-2.123 0-.826.137-1.532.412-2.118.279-.587.66-1.036 1.144-1.347a2.97 2.97 0 0 1 1.645-.468c.474 0 .855.08 1.144.239.291.156.517.338.676.547.162.209.288.392.378.552h.089v-3.784h1.487V125h-1.452v-1.188h-.124a4.02 4.02 0 0 1-.388.557 2.152 2.152 0 0 1-.686.546c-.292.156-.67.234-1.134.234Zm.329-1.268c.427 0 .788-.112 1.083-.338.299-.228.524-.545.676-.949.156-.405.234-.875.234-1.412 0-.53-.076-.995-.229-1.392-.152-.398-.376-.708-.671-.93-.295-.222-.659-.333-1.093-.333-.448 0-.821.116-1.119.348a2.127 2.127 0 0 0-.676.95 3.874 3.874 0 0 0-.224 1.357c0 .51.076.969.229 1.377.152.408.378.731.676.969.301.236.673.353 1.114.353Zm5.576 1.119v-7.636h1.487V125h-1.487Zm.751-8.815a.947.947 0 0 1-.666-.258.844.844 0 0 1-.274-.627.83.83 0 0 1 .274-.626.934.934 0 0 1 .666-.263c.259 0 .479.087.661.263a.822.822 0 0 1 .279.626.835.835 0 0 1-.279.627.927.927 0 0 1-.661.258Zm4.222 4.281V125h-1.486v-7.636h1.427v1.243h.094c.176-.405.451-.73.825-.975.378-.245.854-.368 1.427-.368.521 0 .976.11 1.367.328.391.216.695.537.91.965.216.427.323.956.323 1.586V125h-1.486v-4.678c0-.554-.144-.986-.433-1.298-.288-.315-.684-.472-1.188-.472-.345 0-.651.074-.92.224a1.605 1.605 0 0 0-.631.656c-.153.285-.229.63-.229 1.034Zm10.083 7.557c-.607 0-1.129-.08-1.566-.239-.435-.159-.789-.369-1.064-.631a2.663 2.663 0 0 1-.617-.86l1.278-.527c.089.145.209.3.358.462.152.166.358.307.616.423.262.116.599.174 1.01.174.563 0 1.029-.138 1.397-.413.367-.272.551-.706.551-1.303v-1.501h-.094c-.09.162-.219.343-.388.542a2.096 2.096 0 0 1-.686.517c-.292.146-.671.219-1.138.219a3.178 3.178 0 0 1-1.631-.423c-.481-.285-.862-.704-1.144-1.258-.278-.557-.417-1.241-.417-2.053 0-.812.137-1.508.412-2.088.279-.58.66-1.024 1.144-1.332a2.97 2.97 0 0 1 1.646-.468c.473 0 .856.08 1.148.239.292.156.519.338.681.547.166.209.293.392.383.552h.109v-1.238h1.457v7.805c0 .656-.153 1.195-.457 1.616a2.69 2.69 0 0 1-1.238.934c-.517.203-1.101.304-1.75.304Zm-.015-4.37c.427 0 .789-.1 1.084-.299a1.86 1.86 0 0 0 .676-.865c.155-.377.233-.83.233-1.357 0-.514-.076-.966-.228-1.357a2.025 2.025 0 0 0-.672-.915c-.295-.222-.659-.333-1.093-.333-.448 0-.821.116-1.119.348-.298.229-.524.54-.676.935a3.715 3.715 0 0 0-.224 1.322c0 .501.076.94.229 1.318.152.377.378.672.676.885.302.212.673.318 1.114.318Zm8.776-7.512v-1.323h7.88v1.323h-3.177V125h-1.531v-8.859h-3.172Zm10.685 9.028c-.484 0-.921-.089-1.313-.268a2.21 2.21 0 0 1-.929-.791c-.226-.345-.338-.767-.338-1.268 0-.431.083-.785.248-1.064.166-.278.39-.498.671-.661a3.53 3.53 0 0 1 .945-.368 9.352 9.352 0 0 1 1.064-.189l1.114-.129c.285-.036.492-.094.621-.174.129-.079.194-.209.194-.388v-.034c0-.435-.123-.771-.368-1.01-.242-.238-.603-.358-1.084-.358-.5 0-.895.111-1.183.333-.285.219-.482.463-.592.731l-1.397-.318c.166-.464.408-.838.726-1.124a2.947 2.947 0 0 1 1.109-.626 4.317 4.317 0 0 1 1.317-.199c.305 0 .628.037.97.11.345.069.666.198.964.387.302.189.549.459.741.811.192.348.288.8.288 1.357V125h-1.451v-1.044h-.06c-.096.192-.24.381-.432.567a2.33 2.33 0 0 1-.741.462c-.302.123-.663.184-1.084.184Zm.323-1.193c.411 0 .762-.081 1.054-.244.295-.162.519-.374.671-.636a1.65 1.65 0 0 0 .234-.85v-.985c-.053.053-.156.103-.308.15-.149.043-.32.081-.512.114-.193.03-.38.058-.562.084l-.458.06a3.674 3.674 0 0 0-.79.184c-.235.086-.424.21-.567.373-.139.159-.209.371-.209.636 0 .368.136.647.408.835.272.186.618.279 1.039.279Zm11.148-4.748-1.348.239a1.579 1.579 0 0 0-.268-.493 1.33 1.33 0 0 0-.487-.382c-.206-.1-.463-.15-.771-.15-.421 0-.772.095-1.054.284-.282.185-.422.426-.422.721 0 .255.094.46.283.616.189.156.494.284.915.383l1.213.278c.702.163 1.226.413 1.571.751.344.338.517.777.517 1.318 0 .457-.133.865-.398 1.223-.262.354-.628.633-1.099.835-.467.202-1.009.303-1.625.303-.855 0-1.553-.182-2.093-.547-.541-.368-.872-.89-.995-1.566l1.437-.219c.09.375.274.658.552.851.278.189.641.283 1.089.283.487 0 .876-.101 1.168-.303.292-.206.438-.456.438-.751a.782.782 0 0 0-.269-.602c-.176-.162-.446-.285-.81-.367l-1.293-.284c-.712-.162-1.239-.421-1.581-.775-.338-.355-.507-.804-.507-1.348 0-.45.126-.845.378-1.183.252-.338.6-.602 1.044-.79.444-.193.953-.289 1.526-.289.825 0 1.475.179 1.949.537.474.355.787.83.94 1.427Zm3.15 3.182-.01-1.815h.259l3.043-3.231h1.779l-3.47 3.679h-.233l-1.368 1.367Zm-1.367 2.59v-10.182h1.487V125h-1.487Zm4.823 0-2.735-3.629 1.024-1.039 3.535 4.668h-1.824Z"/><rect width="37.143" height="37.143" x="264.428" y="140" fill="#0A0A0A" rx="18.571"/><g clip-path="url(#a)"><path stroke="#fff" stroke-linecap="round" stroke-linejoin="round" stroke-width="1.5" d="M284.332 165h-2.667m-5.138-10.12a2.675 2.675 0 0 1 1.355-2.347m11.584 2.347a2.672 2.672 0 0 0-1.354-2.347m-1.114 3.8a3.999 3.999 0 0 0-6.828-2.828 4 4 0 0 0-1.172 2.828c0 2.06-.519 3.471-1.1 4.404-.49.787-.735 1.18-.726 1.29.01.121.036.168.134.24.089.066.487.066 1.285.066h8.815c.797 0 1.196 0 1.284-.066.098-.072.124-.119.134-.24.009-.11-.236-.503-.726-1.29-.58-.933-1.1-2.344-1.1-4.404Z"/></g><defs><clipPath id="a"><path fill="#fff" d="M274.998 151h16v16h-16z"/></clipPath></defs></svg>